<svg xmlns="http://www.w3.org/2000/svg" viewBox="0 0 1559.06 1559.06"><defs><style>.a{fill:#344444;stroke:#1d1d1b;stroke-width:0.93px;}.a,.c,.j,.k,.l,.m,.n,.o,.p,.q,.r,.s,.t,.u{stroke-miterlimit:10;}.b{opacity:0.5;}.c,.j,.k,.l,.m,.n,.o,.p,.q,.r,.s,.t,.u{fill:none;}.c{stroke:#5ebebc;stroke-width:3px;}.d{fill:#5ebebc;}.e{fill:#a4d7e0;}.f{fill:#72dbac;}.g{fill:#b2e533;}.h{fill:#59ffec;}.i{fill:#8ac8a7;}.j,.k,.p,.q{stroke:#8ac8a7;}.j,.k,.l,.o{stroke-width:6px;}.k{stroke-dasharray:16.06 20.07;}.l,.t,.u{stroke:#b2e533;}.m,.n{stroke:#59ffec;stroke-width:8px;}.n{stroke-dasharray:15.82 23.73;}.o,.r,.s{stroke:#72dbac;}.p,.q,.r,.s,.t,.u{stroke-width:4px;}.q{stroke-dasharray:10.11 15.16;}.s{stroke-dasharray:10.15 15.22;}.u{stroke-dasharray:10.17 15.25;}</style></defs><rect class="a" x="0.11" width="1559.06" height="1559.06"/><g class="b"><rect class="c" x="165.92" y="172" width="1226.22" height="1226.21"/><line class="c" x1="165.92" y1="1244.93" x2="1392.13" y2="1244.93"/><line class="c" x1="165.92" y1="1091.65" x2="1392.13" y2="1091.65"/><line class="c" x1="165.92" y1="938.38" x2="1392.13" y2="938.38"/><line class="c" x1="165.92" y1="785.1" x2="1392.13" y2="785.1"/><line class="c" x1="165.92" y1="631.83" x2="1392.13" y2="631.83"/><line class="c" x1="165.92" y1="478.55" x2="1392.13" y2="478.55"/><line class="c" x1="165.92" y1="325.27" x2="1392.13" y2="325.27"/><line class="c" x1="1238.86" y1="172" x2="1238.86" y2="1398.2"/><line class="c" x1="1085.58" y1="172" x2="1085.58" y2="1398.2"/><line class="c" x1="932.3" y1="172" x2="932.3" y2="1398.2"/><line class="c" x1="779.03" y1="172" x2="779.03" y2="1398.2"/><line class="c" x1="625.75" y1="172" x2="625.75" y2="1398.2"/><line class="c" x1="472.47" y1="172" x2="472.47" y2="1398.2"/><line class="c" x1="319.19" y1="172" x2="319.19" y2="1398.2"/></g><line class="c" x1="165.92" y1="1398.2" x2="1420.61" y2="1398.2"/><polygon class="d" points="1416.23 1413.16 1442.13 1398.2 1416.23 1383.25 1416.23 1413.16"/><line class="c" x1="165.92" y1="1398.2" x2="165.92" y2="113.53"/><polygon class="d" points="180.88 117.9 165.92 92 150.96 117.9 180.88 117.9"/><path class="e" d="M157.9,65.79a8.49,8.49,0,0,1-3.3,3.88,10,10,0,0,1-5.13,1.2c-3.42,0-5.93-1.17-7.54-3.53s-2.41-5.9-2.41-10.64q0-14.37,9.95-14.37a10.89,10.89,0,0,1,5.14,1.1A7.73,7.73,0,0,1,157.92,47H158l-.06-3.84V32.53h4.58v32c0,2.86.05,4.75.15,5.66h-4.37a11.64,11.64,0,0,1-.18-1.85c0-1-.07-1.84-.07-2.57Zm-13.66-9.24q0,5.64,1.51,8.22a5.26,5.26,0,0,0,4.91,2.57,6.13,6.13,0,0,0,5.49-2.68q1.77-2.67,1.77-8.51,0-5.46-1.71-7.95t-5.5-2.49a5.29,5.29,0,0,0-5,2.62Q144.25,50.94,144.24,56.55Z"/><path class="e" d="M193.87,60.56a8.29,8.29,0,0,1-3.48,7.11q-3.48,2.55-9.67,2.54h-12V36h10.46q12.6,0,12.6,8.3A7.54,7.54,0,0,1,190,49.44a8.66,8.66,0,0,1-5,2.72,10.67,10.67,0,0,1,6.56,2.72A7.58,7.58,0,0,1,193.87,60.56Zm-7-15.69A4.16,4.16,0,0,0,185,41a11.34,11.34,0,0,0-5.75-1.15h-5.66V50.41h5.71Q186.91,50.41,186.91,44.87ZM189,60.13a5,5,0,0,0-2.26-4.42q-2.27-1.51-6.73-1.52h-6.4V66.33h6.75q4.46,0,6.54-1.54A5.39,5.39,0,0,0,189,60.13Z"/><path class="e" d="M1473.9,1405.79a8.49,8.49,0,0,1-3.3,3.88,10,10,0,0,1-5.13,1.2c-3.42,0-5.93-1.17-7.54-3.53s-2.41-5.9-2.41-10.64q0-14.37,10-14.37a10.89,10.89,0,0,1,5.14,1.1,7.78,7.78,0,0,1,3.31,3.58h.06l-.06-3.84v-10.64h4.58v32c0,2.86,0,4.75.15,5.66h-4.37a11.64,11.64,0,0,1-.18-1.85c0-1-.07-1.84-.07-2.57Zm-13.66-9.24q0,5.64,1.51,8.22a5.26,5.26,0,0,0,4.91,2.57,6.13,6.13,0,0,0,5.49-2.68q1.77-2.67,1.77-8.51,0-5.46-1.71-8t-5.5-2.49a5.29,5.29,0,0,0-5,2.62Q1460.25,1390.94,1460.24,1396.55Z"/><path class="e" d="M1509.87,1400.56a8.29,8.29,0,0,1-3.48,7.11q-3.48,2.55-9.67,2.54h-12V1376h10.46q12.6,0,12.6,8.3a7.54,7.54,0,0,1-1.83,5.18,8.66,8.66,0,0,1-5,2.72,10.67,10.67,0,0,1,6.56,2.72A7.58,7.58,0,0,1,1509.87,1400.56Zm-7-15.69A4.16,4.16,0,0,0,1501,1381a11.34,11.34,0,0,0-5.75-1.15h-5.66v10.56h5.71Q1502.91,1390.41,1502.91,1384.87Zm2.06,15.26a5,5,0,0,0-2.26-4.42q-2.26-1.51-6.73-1.52h-6.4v12.14h6.76q4.44,0,6.53-1.54A5.39,5.39,0,0,0,1505,1400.13Z"/><path class="e" d="M151.25,160.83q0,8.59-3.16,13.12t-9.33,4.53q-6.18,0-9.27-4.51t-3.1-13.14q0-8.85,3-13.25t9.5-4.39q6.32,0,9.33,4.43T151.25,160.83Zm-4.65,0c0-4.9-.6-8.46-1.79-10.65a6.2,6.2,0,0,0-5.9-3.29,6.44,6.44,0,0,0-6.06,3.25Q131,153.4,131,160.83q0,7.24,1.87,10.58a6.87,6.87,0,0,0,11.84-.09Q146.61,167.89,146.6,160.83Zm-10.76,3v-6.32h6v6.32Z"/><path class="e" d="M1404.54,1432q0,8.58-3.16,13.11t-9.34,4.54q-6.16,0-9.26-4.51t-3.1-13.14q0-8.87,3-13.25t9.5-4.4q6.32,0,9.33,4.43T1404.54,1432Zm-4.65,0q0-7.37-1.79-10.65a6.2,6.2,0,0,0-5.9-3.29,6.42,6.42,0,0,0-6.06,3.25q-1.85,3.26-1.84,10.69,0,7.23,1.87,10.58a6.88,6.88,0,0,0,11.84-.09Q1399.89,1439,1399.89,1432Zm-10.76,3v-6.32h6V1435Z"/><path class="e" d="M88.13,1437.35v-4.06h14.22v4.06Z"/><path class="e" d="M150.73,1434.15a9.48,9.48,0,0,1-2.84,7,9.81,9.81,0,0,1-7.18,2.8q-6.59,0-10.81-7.16a16.73,16.73,0,0,1-4.8,5.11,10.44,10.44,0,0,1-13-.79,10.32,10.32,0,0,1,.06-14.22,10,10,0,0,1,7.23-2.74q6.51,0,10.59,7.19,4.62-7,10.81-7A9.77,9.77,0,0,1,148,1427,9.56,9.56,0,0,1,150.73,1434.15Zm-23.07-.15a15.28,15.28,0,0,0-3.39-4.88,6.18,6.18,0,0,0-4.22-1.62,5.27,5.27,0,0,0-4.15,1.85,6.85,6.85,0,0,0-1.64,4.7,6.61,6.61,0,0,0,1.64,4.68,5.5,5.5,0,0,0,4.23,1.77Q124.29,1440.5,127.66,1434Zm12.19-6.35a5.93,5.93,0,0,0-4,1.6,16.4,16.4,0,0,0-3.54,4.9,15.73,15.73,0,0,0,3.41,4.87,6,6,0,0,0,4.16,1.63,5.49,5.49,0,0,0,4.23-1.82,7.34,7.34,0,0,0,0-9.32A5.48,5.48,0,0,0,139.85,1427.65Z"/><path class="e" d="M617.73,1425.86h20.89v4h-8v26.33h8v4H617.73v-4h8v-26.33h-8Z"/><path class="e" d="M664.8,1460.11v-17.65a8.12,8.12,0,0,0-1.33-5.12,5.11,5.11,0,0,0-4.25-1.68,6.57,6.57,0,0,0-5.17,2.3,9.09,9.09,0,0,0-2,6.23v15.92h-4.57V1438.5q0-4.8-.15-5.86h4.31a4.47,4.47,0,0,1,0,.68c0,.38,0,.8.07,1.29s0,1.39.09,2.73h.07a9.15,9.15,0,0,1,8.79-5.21q4.39,0,6.55,2.37t2.16,7.3v18.31Z"/><path class="e" d="M700.6,1446.25q0,14.37-10,14.37c-4.16,0-7-1.56-8.4-4.67h-.13a36.14,36.14,0,0,1,.1,4.21v10.74h-4.59v-32.57c0-2.88-.06-4.78-.16-5.69h4.45c0,.07,0,.32.07.75s.07,1.06.12,1.9.06,1.46.06,1.87h.1a8.79,8.79,0,0,1,3.24-3.87,9.66,9.66,0,0,1,5.14-1.21q5,0,7.49,3.47T700.6,1446.25Zm-4.72,0q0-5.74-1.55-8.19a5.35,5.35,0,0,0-4.87-2.45,6,6,0,0,0-5.54,2.78q-1.7,2.77-1.7,8.42,0,5.4,1.7,7.92c1.14,1.67,3,2.51,5.49,2.51a5.31,5.31,0,0,0,4.92-2.56Q695.88,1452.12,695.88,1446.25Z"/><path class="e" d="M712.36,1432.64v17.42c0,2.64.42,4.47,1.24,5.49s2.32,1.54,4.45,1.54a6.48,6.48,0,0,0,5.18-2.23,9.43,9.43,0,0,0,1.9-6.3v-15.92h4.6v21.61q0,4.8.15,5.86h-4.32c0-.08,0-.31,0-.68s0-.8-.06-1.29-.06-1.39-.09-2.73h-.08a10.06,10.06,0,0,1-3.64,4,10.21,10.21,0,0,1-5.14,1.18q-4.51,0-6.62-2.25t-2.09-7.42v-18.31Z"/><path class="e" d="M738.08,1436.24v-3.6h4.32l1.47-7.16h3v7.16h11v3.6h-11v16.56a3.78,3.78,0,0,0,1.08,3,5.28,5.28,0,0,0,3.54,1,36.85,36.85,0,0,0,7.54-.86v3.48a32.25,32.25,0,0,1-8.51,1.17c-2.74,0-4.79-.58-6.17-1.74s-2-3-2-5.5v-17Z"/><path class="e" d="M814.79,1456.38l7.13.13v3.6l-9.39-.1a6.33,6.33,0,0,1-4.19-2.29c-.37-.5-.58-1.89-.63-4.16V1426h-7.34v-3.61h11.91v31.66a2.21,2.21,0,0,0,.63,1.7A3.15,3.15,0,0,0,814.79,1456.38Z"/><path class="e" d="M831.93,1447.34a11.52,11.52,0,0,0,2,7.24,6.74,6.74,0,0,0,5.6,2.61,9.11,9.11,0,0,0,4.59-1.13,5.54,5.54,0,0,0,2.62-3.08l4,1.14a8.67,8.67,0,0,1-4.1,4.82,14.26,14.26,0,0,1-7.12,1.68c-4,0-7.07-1.25-9.21-3.73s-3.23-6.06-3.23-10.69,1-8,3.16-10.43,5.15-3.64,9.13-3.64,7,1.21,9,3.63,3.07,6.08,3.07,11v.61Zm7.54-11.83a6.84,6.84,0,0,0-5.38,2.22,9.32,9.32,0,0,0-2.11,6.11h14.83Q846.09,1435.5,839.47,1435.51Z"/><path class="e" d="M872.07,1460.11h-5.4l-11-27.47h5.13l6.8,17.87.44,1.35,1.32,4.67.89-3,1-3,7-17.92h5.11Z"/><path class="e" d="M892.26,1447.34a11.52,11.52,0,0,0,2,7.24,6.74,6.74,0,0,0,5.6,2.61,9.11,9.11,0,0,0,4.59-1.13,5.54,5.54,0,0,0,2.62-3.08l4,1.14a8.73,8.73,0,0,1-4.11,4.82,14.26,14.26,0,0,1-7.12,1.68q-6,0-9.21-3.73t-3.23-10.69q0-6.78,3.16-10.43t9.13-3.64q6,0,9,3.63t3.07,11v.61Zm7.54-11.83a6.84,6.84,0,0,0-5.38,2.22,9.32,9.32,0,0,0-2.11,6.11h14.83Q906.42,1435.5,899.8,1435.51Z"/><path class="e" d="M935.45,1456.38l7.14.13v3.6l-9.4-.1a6.33,6.33,0,0,1-4.19-2.29c-.37-.5-.58-1.89-.63-4.16V1426H921v-3.61h11.91v31.66a2.25,2.25,0,0,0,.63,1.7A3.15,3.15,0,0,0,935.45,1456.38Z"/><path class="f" d="M424.5,94.89q0,6.93,2.17,10.39a7.3,7.3,0,0,0,6.64,3.47A7,7,0,0,0,438,107a13.18,13.18,0,0,0,3.53-5.42l4,1.65q-3.78,9.45-12.26,9.44-6.69,0-10.27-4.59c-2.4-3.06-3.6-7.47-3.6-13.2q0-17.51,13.61-17.5,8.61,0,11.84,8.51l-4.27,1.65A9.57,9.57,0,0,0,437.64,83,7,7,0,0,0,433,81.35a7.1,7.1,0,0,0-6.44,3.28Q424.51,87.9,424.5,94.89Z"/><path class="f" d="M474.54,98.41q0,6.95-3.18,10.61t-9.21,3.66q-5.88,0-9-3.7T450,98.41q0-7.08,3.21-10.65t9.1-3.56q6.19,0,9.22,3.53T474.54,98.41Zm-4.8,0q0-5.44-1.74-8.15c-1.15-1.79-3-2.69-5.62-2.69a6.43,6.43,0,0,0-5.76,2.75q-1.83,2.73-1.83,8.09c0,3.56.61,6.26,1.83,8.12a6.12,6.12,0,0,0,5.48,2.78q4,0,5.84-2.72T469.74,98.41Z"/><path class="f" d="M490.34,112.18V94.76a16.34,16.34,0,0,0-.63-5.47,2.26,2.26,0,0,0-2.27-1.56c-1.08,0-2,.81-2.63,2.43a18,18,0,0,0-1,6.6v15.42h-4.29V90.57q0-4.8-.15-5.87h3.78l.15,3.23v1.22h.05a8.63,8.63,0,0,1,2.19-3.77,4.75,4.75,0,0,1,3.3-1.18,4.3,4.3,0,0,1,3.34,1.21,7.78,7.78,0,0,1,1.58,3.76h.06a8.81,8.81,0,0,1,2.42-3.83,5.5,5.5,0,0,1,3.57-1.14,4.59,4.59,0,0,1,4.29,2.18c.86,1.46,1.29,4,1.29,7.49v18.31h-4.26V94.76a16.67,16.67,0,0,0-.62-5.47,2.28,2.28,0,0,0-2.28-1.56c-1.11,0-2,.71-2.65,2.13a16.06,16.06,0,0,0-1,6.4v15.92Z"/><path class="f" d="M534.7,98.31q0,14.37-10,14.37-6.24,0-8.4-4.67h-.13a36.39,36.39,0,0,1,.1,4.22V123h-4.59V90.39c0-2.88-.05-4.77-.16-5.69H516c0,.07,0,.32.07.75s.08,1.07.12,1.91.06,1.46.06,1.86h.1a8.85,8.85,0,0,1,3.24-3.87,9.78,9.78,0,0,1,5.14-1.2q5,0,7.49,3.46T534.7,98.31Zm-4.73,0c0-3.82-.51-6.55-1.55-8.19a5.34,5.34,0,0,0-4.87-2.45A6,6,0,0,0,518,90.45c-1.13,1.86-1.7,4.66-1.7,8.42q0,5.41,1.7,7.92t5.49,2.52a5.32,5.32,0,0,0,4.92-2.57C529.46,105,530,102.22,530,98.31Z"/><path class="f" d="M563.72,88.87a32.43,32.43,0,0,0-5.38-.48,8.12,8.12,0,0,0-6.61,3.07,12,12,0,0,0-2.51,7.82v12.9h-4.57V94.38a35.39,35.39,0,0,0-.34-4.55,46,46,0,0,0-1-5.13h4.34a31.25,31.25,0,0,1,1.22,6.35H549a16.05,16.05,0,0,1,2.48-4.18,8,8,0,0,1,2.9-2,11,11,0,0,1,4.09-.67,31.55,31.55,0,0,1,5.23.43Z"/><path class="f" d="M575.53,99.4a11.48,11.48,0,0,0,2,7.24,6.73,6.73,0,0,0,5.6,2.62,9.07,9.07,0,0,0,4.58-1.13,5.57,5.57,0,0,0,2.63-3.09l4,1.14a8.73,8.73,0,0,1-4.1,4.83,14.28,14.28,0,0,1-7.12,1.67q-6,0-9.22-3.73t-3.22-10.69q0-6.78,3.16-10.42T583,84.2c4,0,7,1.21,9,3.63s3.08,6.07,3.08,11v.6Zm7.54-11.83a6.86,6.86,0,0,0-5.39,2.22,9.33,9.33,0,0,0-2.1,6.11H590.4Q589.69,87.57,583.07,87.57Z"/><path class="f" d="M624.43,104.33a7.24,7.24,0,0,1-3,6.13q-3,2.22-8.19,2.22t-8-1.63a7.85,7.85,0,0,1-3.57-5.17l4-.79a4.77,4.77,0,0,0,2.07,3.19q1.59,1,5.42,1,6.86,0,6.86-4.34a3.23,3.23,0,0,0-1.25-2.63,10,10,0,0,0-3.8-1.64,48.62,48.62,0,0,1-8.51-2.59,7.41,7.41,0,0,1-2.77-2.34,6.13,6.13,0,0,1-1-3.52,7,7,0,0,1,2.69-5.84q2.69-2.11,7.79-2.11A13.19,13.19,0,0,1,620.47,86a7.28,7.28,0,0,1,3.32,4.91l-4.11.51a3.79,3.79,0,0,0-1.8-2.77,8.88,8.88,0,0,0-4.55-.94c-4.14,0-6.22,1.28-6.22,3.84A3.06,3.06,0,0,0,608.17,94a8,8,0,0,0,3.39,1.47l3,.79a26.37,26.37,0,0,1,5.95,2,8.29,8.29,0,0,1,2.86,2.48A6.2,6.2,0,0,1,624.43,104.33Z"/><path class="f" d="M654.59,104.33a7.23,7.23,0,0,1-3,6.13q-3,2.22-8.19,2.22t-8-1.63a7.85,7.85,0,0,1-3.57-5.17l4-.79a4.77,4.77,0,0,0,2.07,3.19c1.06.67,2.86,1,5.42,1q6.85,0,6.85-4.34a3.22,3.22,0,0,0-1.24-2.63,10,10,0,0,0-3.81-1.64,48.41,48.41,0,0,1-8.5-2.59A7.26,7.26,0,0,1,634,95.74a6.06,6.06,0,0,1-1-3.52,7,7,0,0,1,2.69-5.84q2.7-2.11,7.8-2.11A13.13,13.13,0,0,1,650.63,86,7.29,7.29,0,0,1,654,90.87l-4.11.51A3.78,3.78,0,0,0,648,88.61a8.84,8.84,0,0,0-4.54-.94q-6.22,0-6.22,3.84A3.08,3.08,0,0,0,638.33,94a8,8,0,0,0,3.39,1.47l3,.79a26.5,26.5,0,0,1,6,2,8.16,8.16,0,0,1,2.85,2.48A6.13,6.13,0,0,1,654.59,104.33Z"/><path class="f" d="M676.76,108.57h9.65v3.61H661.48v-3.61h10.71V88.31h-8.1V84.7h12.67Zm-5.08-29.2V74.5h5.08v4.87Z"/><path class="f" d="M715.86,98.41q0,6.95-3.18,10.61c-2.13,2.44-5.19,3.66-9.21,3.66s-6.93-1.23-9-3.7-3.14-6-3.14-10.57,1.07-8.27,3.21-10.65,5.18-3.56,9.11-3.56q6.2,0,9.21,3.53T715.86,98.41Zm-4.79,0q0-5.44-1.74-8.15t-5.63-2.69a6.43,6.43,0,0,0-5.76,2.75q-1.83,2.73-1.83,8.09c0,3.56.61,6.26,1.83,8.12a6.14,6.14,0,0,0,5.48,2.78q4,0,5.84-2.72C710.46,104.78,711.07,102.05,711.07,98.41Z"/><path class="f" d="M740.21,112.18V94.53a8.17,8.17,0,0,0-1.33-5.13,5.09,5.09,0,0,0-4.25-1.67A6.58,6.58,0,0,0,729.46,90a9.16,9.16,0,0,0-2,6.24v15.92h-4.57V90.57q0-4.8-.15-5.87H727c0,.09,0,.32.05.69s0,.8.06,1.28.06,1.39.09,2.73h.08a9.12,9.12,0,0,1,8.78-5.2q4.39,0,6.55,2.37c1.44,1.58,2.16,4,2.16,7.3v18.31Z"/><path class="e" d="M806.46,109.36a7.24,7.24,0,0,0,1.5-.18V112a15.42,15.42,0,0,1-3.53.41,4.62,4.62,0,0,1-3.69-1.33,6.8,6.8,0,0,1-1.31-4.18h-.15a11.13,11.13,0,0,1-3.9,4.42,10.61,10.61,0,0,1-5.55,1.34c-2.67,0-4.69-.72-6-2.18a8.43,8.43,0,0,1-2-6q0-8.87,11.52-9l6-.1v-1.5c0-2.22-.45-3.81-1.35-4.79a5.6,5.6,0,0,0-4.29-1.46,6.91,6.91,0,0,0-4.32,1.07,4.71,4.71,0,0,0-1.57,3.3L783,91.61q1.17-7.41,10.74-7.41,5.09,0,7.63,2.37t2.56,6.87v11.83a6.83,6.83,0,0,0,.53,3.06A2.07,2.07,0,0,0,806.46,109.36ZM791,109.21a8,8,0,0,0,7.23-4.3,8.39,8.39,0,0,0,1-4V98.62l-4.83.1a13.7,13.7,0,0,0-4.57.66,5.16,5.16,0,0,0-2.45,1.87,5.73,5.73,0,0,0-.88,3.33,4.89,4.89,0,0,0,1.13,3.36A4.24,4.24,0,0,0,791,109.21Z"/><path class="e" d="M830.71,112.18V94.53a8.17,8.17,0,0,0-1.33-5.13,5.11,5.11,0,0,0-4.26-1.67A6.54,6.54,0,0,0,820,90a9.11,9.11,0,0,0-2,6.24v15.92h-4.57V90.57q0-4.8-.15-5.87h4.31a4.81,4.81,0,0,1,.05.69c0,.37,0,.8.07,1.28s.05,1.39.09,2.73h.07a9.14,9.14,0,0,1,8.79-5.2c2.92,0,5.11.79,6.55,2.37s2.16,4,2.16,7.3v18.31Z"/><path class="e" d="M860.72,107.76a8.41,8.41,0,0,1-3.3,3.87,10,10,0,0,1-5.13,1.21q-5.13,0-7.54-3.53t-2.41-10.64q0-14.37,9.95-14.37a10.89,10.89,0,0,1,5.14,1.09A7.85,7.85,0,0,1,860.75,89h0l0-3.83V74.5h4.57v32q0,4.29.15,5.67H861.1a14.15,14.15,0,0,1-.17-1.86c0-1-.08-1.83-.08-2.56Zm-13.66-9.24c0,3.75.51,6.49,1.51,8.21a5.27,5.27,0,0,0,4.92,2.58,6.12,6.12,0,0,0,5.48-2.68q1.78-2.68,1.78-8.52,0-5.46-1.72-8t-5.49-2.49a5.29,5.29,0,0,0-4.95,2.62C847.57,92,847.06,94.78,847.06,98.52Z"/><path class="g" d="M905.18,112.18V77.92H910v30.3H927.1v4Z"/><path class="g" d="M948.25,108.57h9.65v3.61H933v-3.61h10.72V88.31h-8.1V84.7h12.67Zm-5.08-29.2V74.5h5.08v4.87Z"/><path class="g" d="M973,112.18V94.76a16.67,16.67,0,0,0-.62-5.47,2.28,2.28,0,0,0-2.28-1.56c-1.08,0-2,.81-2.62,2.43a17.73,17.73,0,0,0-1,6.6v15.42h-4.29V90.57q0-4.8-.15-5.87h3.78l.16,3.23v1.22h0a8.53,8.53,0,0,1,2.18-3.77,4.75,4.75,0,0,1,3.3-1.18,4.3,4.3,0,0,1,3.34,1.21,7.78,7.78,0,0,1,1.59,3.76h.05a8.81,8.81,0,0,1,2.42-3.83,5.5,5.5,0,0,1,3.57-1.14,4.58,4.58,0,0,1,4.29,2.18c.86,1.46,1.3,4,1.3,7.49v18.31h-4.27V94.76a16.67,16.67,0,0,0-.62-5.47,2.28,2.28,0,0,0-2.27-1.56c-1.12,0-2,.71-2.66,2.13a16.06,16.06,0,0,0-1,6.4v15.92Z"/><path class="g" d="M1008.58,108.57h9.65v3.61H993.29v-3.61H1004V88.31h-8.1V84.7h12.67Zm-5.08-29.2V74.5h5.08v4.87Z"/><path class="g" d="M1024.65,88.31V84.7H1029l1.47-7.16h3V84.7h11v3.61h-11v16.55a3.78,3.78,0,0,0,1.08,3,5.22,5.22,0,0,0,3.54,1,37.57,37.57,0,0,0,7.54-.86v3.47a32.25,32.25,0,0,1-8.51,1.17q-4.11,0-6.17-1.74t-2-5.49v-17Z"/><path class="g" d="M1068.91,108.57h9.65v3.61h-24.94v-3.61h10.72V88.31h-8.1V84.7h12.67Zm-5.08-29.2V74.5h5.08v4.87Z"/><path class="g" d="M1102.2,112.18V94.53a8.17,8.17,0,0,0-1.34-5.13,5.09,5.09,0,0,0-4.25-1.67,6.58,6.58,0,0,0-5.17,2.29,9.16,9.16,0,0,0-2,6.24v15.92h-4.57V90.57q0-4.8-.15-5.87H1089c0,.09,0,.32,0,.69s0,.8.06,1.28.06,1.39.09,2.73h.08a9.12,9.12,0,0,1,8.78-5.2q4.39,0,6.55,2.37c1.44,1.58,2.16,4,2.16,7.3v18.31Z"/><path class="g" d="M1125.94,122.94a12,12,0,0,1-6.86-1.75,7.78,7.78,0,0,1-3.3-5l4.67-.63a4.73,4.73,0,0,0,1.87,2.93,6.28,6.28,0,0,0,3.77,1q6.3,0,6.3-8v-4.92h-.05a9.1,9.1,0,0,1-3.46,4,10,10,0,0,1-5.25,1.34c-3.36,0-5.81-1.09-7.35-3.29s-2.33-5.64-2.33-10.34.83-8.32,2.49-10.58,4.22-3.39,7.67-3.39a9.19,9.19,0,0,1,5,1.34,8.61,8.61,0,0,1,3.26,3.79h.08c0-.51,0-1.37.1-2.58a14.14,14.14,0,0,1,.2-2.12h4.34c-.1.92-.15,2.81-.15,5.69v21q0,5.77-2.69,8.67T1125.94,122.94Zm6.45-24.75a13.57,13.57,0,0,0-1.91-7.71,6,6,0,0,0-5.23-2.81,5.52,5.52,0,0,0-5,2.43c-1,1.62-1.55,4.31-1.55,8.09a22.52,22.52,0,0,0,.65,6,6,6,0,0,0,2,3.24,7.14,7.14,0,0,0,7.63-.19,7.66,7.66,0,0,0,2.53-3.53A15.68,15.68,0,0,0,1132.39,98.19Z"/><path class="h" d="M714.49,504.72h30.29v4.82H714.49v11.25h-4V493.47h4Z"/><path class="h" d="M707.1,487.86v-4.6H717c1,0,2.67.08,5,.23v-.08a9,9,0,0,1-5.21-8.6q0-8.9,9.67-8.89h18.31v4.59H727.13a8.12,8.12,0,0,0-5.12,1.34,5.09,5.09,0,0,0-1.68,4.25,6.59,6.59,0,0,0,2.3,5.17,9.14,9.14,0,0,0,6.23,2h15.92v4.57Z"/><path class="h" d="M721.47,435.86a32.34,32.34,0,0,0-.48,5.38,8.12,8.12,0,0,0,3.07,6.6,11.93,11.93,0,0,0,7.82,2.51h12.9v4.57H727a35.45,35.45,0,0,0-4.54.35,43,43,0,0,0-5.13,1V451.9a31.69,31.69,0,0,1,6.35-1.22v-.12a16.14,16.14,0,0,1-4.18-2.49,7.81,7.81,0,0,1-2-2.9,10.93,10.93,0,0,1-.67-4.08,31.46,31.46,0,0,1,.43-5.23Z"/><path class="h" d="M732,424.05a11.46,11.46,0,0,0,7.24-2.05,6.71,6.71,0,0,0,2.61-5.6,9.07,9.07,0,0,0-1.13-4.58,5.55,5.55,0,0,0-3.08-2.63l1.14-4a8.71,8.71,0,0,1,4.82,4.1,14.31,14.31,0,0,1,1.68,7.12q0,6-3.73,9.22t-10.69,3.23q-6.78,0-10.43-3.16t-3.64-9.13q0-6,3.63-9t11-3.07H732Zm-11.83-7.54a6.84,6.84,0,0,0,2.22,5.38,9.37,9.37,0,0,0,6.11,2.11V409.17Q720.17,409.88,720.18,416.51Z"/><path class="h" d="M736.94,375.14a7.25,7.25,0,0,1,6.13,3q2.22,3,2.22,8.19t-1.64,8a7.8,7.8,0,0,1-5.17,3.57l-.78-4a4.78,4.78,0,0,0,3.18-2.07c.67-1.06,1-2.86,1-5.42q0-6.85-4.35-6.85a3.2,3.2,0,0,0-2.62,1.24,9.88,9.88,0,0,0-1.64,3.81,48.41,48.41,0,0,1-2.59,8.5,7.37,7.37,0,0,1-2.35,2.77,6.11,6.11,0,0,1-3.52,1A7,7,0,0,1,719,394q-2.1-2.68-2.1-7.79a13.13,13.13,0,0,1,1.69-7.13,7.27,7.27,0,0,1,4.91-3.33l.51,4.11a3.76,3.76,0,0,0-2.77,1.81,8.74,8.74,0,0,0-.94,4.54q0,6.22,3.83,6.22a3.07,3.07,0,0,0,2.44-1A8.16,8.16,0,0,0,728,388l.79-3a26.92,26.92,0,0,1,2-6,8.14,8.14,0,0,1,2.47-2.85A6.17,6.17,0,0,1,736.94,375.14Z"/><path class="h" d="M707.1,367.2v-4.6H717c1,0,2.67.08,5,.23v-.08a9,9,0,0,1-5.21-8.6q0-8.89,9.67-8.89h18.31v4.59H727.13a8.12,8.12,0,0,0-5.12,1.34,5.09,5.09,0,0,0-1.68,4.25,6.59,6.59,0,0,0,2.3,5.17,9.14,9.14,0,0,0,6.23,2h15.92v4.57Z"/><path class="h" d="M731,313.87q6.93,0,10.6,3.19c2.45,2.13,3.67,5.19,3.67,9.21s-1.24,6.93-3.71,9-6,3.14-10.56,3.14-8.27-1.07-10.65-3.21-3.57-5.18-3.57-9.11q0-6.19,3.53-9.21T731,313.87Zm0,4.8q-5.46,0-8.15,1.74c-1.8,1.16-2.69,3-2.69,5.63a6.42,6.42,0,0,0,2.74,5.76q2.75,1.83,8.1,1.83c3.55,0,6.26-.61,8.11-1.83a6.14,6.14,0,0,0,2.78-5.48c0-2.7-.9-4.64-2.72-5.84S734.66,318.67,731,318.67Z"/><path class="h" d="M741.05,290.36l.13-7.13h3.6l-.1,9.39a6.33,6.33,0,0,1-2.29,4.19c-.5.37-1.89.58-4.16.64H710.71v7.33H707.1v-11.9h31.66a2.27,2.27,0,0,0,1.7-.64A3.15,3.15,0,0,0,741.05,290.36Z"/><path class="h" d="M740.36,259.51a8.41,8.41,0,0,1,3.87,3.3,9.94,9.94,0,0,1,1.21,5.13q0,5.13-3.53,7.54t-10.64,2.41q-14.37,0-14.37-9.95A11,11,0,0,1,718,262.8a7.88,7.88,0,0,1,3.58-3.31v-.06l-3.83.06H707.1v-4.57h32c2.86,0,4.75-.06,5.66-.16v4.37a11.64,11.64,0,0,1-1.85.18c-1,.05-1.84.07-2.57.07Zm-9.24,13.66q5.64,0,8.21-1.51a5.25,5.25,0,0,0,2.58-4.91,6.13,6.13,0,0,0-2.68-5.49q-2.67-1.77-8.52-1.77-5.44,0-7.94,1.71t-2.49,5.5a5.3,5.3,0,0,0,2.61,4.95Q725.52,273.17,731.12,273.17Z"/><g class="b"><path class="i" d="M1119.83,414.9l-2.6-2.61,7.88-7.88-18.33-18.33c.49,1.38.26,3.24-.71,5.59a17.68,17.68,0,0,1-3.85,5.94l-2.66-2.66a15.72,15.72,0,0,0,3.86-6.19,10,10,0,0,0,.35-6.23l3-3,21.61,21.61,6.34-6.34,2.6,2.61Z"/><path class="i" d="M1132.09,374.53l-5.37-5.37,4.22-4.22,5.37,5.37Zm14.06,14.05-5.37-5.36L1145,379l5.37,5.36Z"/><path class="i" d="M1160.29,374.44l-2.61-2.6,7.89-7.88-18.33-18.33c.49,1.37.25,3.24-.71,5.59a17.81,17.81,0,0,1-3.86,5.93L1140,354.5a16,16,0,0,0,3.85-6.19,10,10,0,0,0,.35-6.24l3-3,21.62,21.62,6.33-6.34,2.61,2.6Z"/></g><path class="g" d="M1152.4,756.49a9.45,9.45,0,0,1-2.85,7,9.79,9.79,0,0,1-7.18,2.8q-6.57,0-10.8-7.16a16.85,16.85,0,0,1-4.8,5.11,10.44,10.44,0,0,1-13-.79,10.33,10.33,0,0,1,0-14.22,10,10,0,0,1,7.23-2.74q6.51,0,10.6,7.18,4.62-7,10.8-7a9.84,9.84,0,0,1,7.24,2.7A9.63,9.63,0,0,1,1152.4,756.49Zm-23.07-.16a15.51,15.51,0,0,0-3.4-4.87,6.17,6.17,0,0,0-4.21-1.63,5.3,5.3,0,0,0-4.16,1.86,6.82,6.82,0,0,0-1.63,4.69,6.63,6.63,0,0,0,1.63,4.69,5.49,5.49,0,0,0,4.23,1.76Q1125.95,762.83,1129.33,756.33Zm12.19-6.34a5.93,5.93,0,0,0-4,1.6,16.57,16.57,0,0,0-3.54,4.9,16,16,0,0,0,3.42,4.87,6,6,0,0,0,4.15,1.63,5.53,5.53,0,0,0,4.24-1.82,6.73,6.73,0,0,0,1.67-4.73,6.65,6.65,0,0,0-1.67-4.59A5.5,5.5,0,0,0,1141.52,750Z"/><path class="g" d="M1162.56,751.59V744h6v7.6Zm0,19.88v-7.6h6v7.6Z"/><path class="g" d="M1182.56,771.47v-3.69h11.14V741.86c-.62,1.32-2.11,2.47-4.45,3.45a17.71,17.71,0,0,1-6.92,1.48V743a15.78,15.78,0,0,0,7.09-1.65,10,10,0,0,0,4.66-4.17h4.22v30.57h9v3.69Z"/><path class="i" d="M1133.72,591.87l-1.32-2.66a21.2,21.2,0,0,1,1-6.72,69.4,69.4,0,0,1,3.55-8.92,32.81,32.81,0,0,0,2.71-7.61,7.84,7.84,0,0,0-.45-4.91,5.44,5.44,0,0,0-3.5-3.1,7.37,7.37,0,0,0-5.16.86,6.76,6.76,0,0,0-3.49,3.5,6.68,6.68,0,0,0,.09,4.93l-4.38,1.7a10,10,0,0,1,.12-7.7,11.93,11.93,0,0,1,6-5.8c3.23-1.6,6.11-2.13,8.63-1.57a8.36,8.36,0,0,1,5.78,4.85,10.42,10.42,0,0,1,.87,6.07,26.91,26.91,0,0,1-2.52,7.9q-2.82,6.06-3.76,8.72a13,13,0,0,0-.86,4.69l16.44-8.17,1.65,3.32Z"/><path class="i" d="M1158.5,557.36l-3.37-6.8,5.34-2.65,3.38,6.8Zm8.85,17.81-3.38-6.8,5.35-2.65,3.37,6.79Z"/><path class="i" d="M1185.26,566.27l-1.64-3.29,10-5-11.53-23.22q0,2.19-2.45,5.07a17.83,17.83,0,0,1-5.54,4.4l-1.68-3.36a15.73,15.73,0,0,0,5.62-4.64,9.94,9.94,0,0,0,2.32-5.8l3.78-1.88,13.6,27.38,8-4,1.63,3.29Z"/><path class="f" d="M1120.09,682.2l2,7.86-4.44,1.11-2-7.86-16.11,4-.86-3.45,10.18-25.82,4.9-1.23,5.46,21.88,4.63-1.15.87,3.5Zm-9.56-19.47-8.07,20.15,12.32-3.07Z"/><path class="f" d="M1134.13,666.56l-1.84-7.37,5.79-1.44,1.84,7.36Zm4.81,19.29-1.84-7.37,5.79-1.44,1.84,7.37Z"/><path class="f" d="M1158.34,681l-.89-3.57,10.82-2.7L1162,649.59c-.29,1.43-1.46,2.91-3.49,4.43a17.87,17.87,0,0,1-6.36,3.1l-.91-3.65a15.85,15.85,0,0,0,6.49-3.31,10.05,10.05,0,0,0,3.51-5.17l4.09-1,7.4,29.66,8.69-2.17.89,3.58Z"/><line class="j" x1="779.03" y1="785.1" x2="165.92" y2="1398.2"/><path class="i" d="M771.05,777.13a11.28,11.28,0,1,1,0,16A11.27,11.27,0,0,1,771.05,777.13Z"/><path class="i" d="M157.94,1390.23a11.28,11.28,0,1,0,15.95,0A11.29,11.29,0,0,0,157.94,1390.23Z"/><g class="b"><line class="j" x1="779.03" y1="785.1" x2="784.68" y2="779.44"/><line class="k" x1="798.88" y1="765.25" x2="1379.38" y2="184.75"/><line class="j" x1="1386.48" y1="177.65" x2="1392.13" y2="172"/></g><path class="e" d="M111.2,938q8.55,0,13.17,3.37a11.22,11.22,0,0,1,4.62,9.66q0,6.32-4.54,9.65T111.2,964q-8.57,0-13-3.3T93.7,951q0-6.27,4.41-9.63T111.2,938Zm0,5.11q-13.55,0-13.54,7.87t13.54,7.92q6.85,0,10.35-2a6.78,6.78,0,0,0,0-11.91Q117.95,943.13,111.2,943.13Z"/><path class="e" d="M101,927.18h17.42q4,0,5.5-1.25c1-.82,1.53-2.31,1.53-4.44a6.45,6.45,0,0,0-2.23-5.18,9.43,9.43,0,0,0-6.3-1.9H101v-4.6h21.61q4.8,0,5.87-.15V914l-.69,0-1.28.06q-.72,0-2.73.09v.08a9.89,9.89,0,0,1,4,3.64A10.21,10.21,0,0,1,129,923c0,3-.74,5.22-2.24,6.61s-4,2.1-7.43,2.1H101Z"/><path class="e" d="M104.62,901.46H101v-4.32l-7.16-1.47v-3H101v-11h3.61v11h16.55a3.78,3.78,0,0,0,3-1.08,5.22,5.22,0,0,0,1-3.54,37.57,37.57,0,0,0-.86-7.54h3.47a32.25,32.25,0,0,1,1.17,8.51q0,4.11-1.74,6.16c-1.16,1.38-3,2.06-5.49,2.06h-17Z"/><path class="e" d="M114.62,848.44q14.37,0,14.37,9.95,0,6.25-4.67,8.41v.13a34.8,34.8,0,0,1,4.22-.11h10.74v4.6H106.7c-2.88,0-4.77.05-5.69.15v-4.44c.07,0,.32,0,.75-.08l1.91-.11c.83,0,1.46-.07,1.86-.07v-.1a8.83,8.83,0,0,1-3.87-3.23,9.82,9.82,0,0,1-1.2-5.15c0-3.35,1.15-5.84,3.46-7.49S109.8,848.44,114.62,848.44Zm0,4.72q-5.73,0-8.19,1.55a5.36,5.36,0,0,0-2.45,4.88,6,6,0,0,0,2.78,5.53c1.86,1.14,4.66,1.7,8.42,1.7,3.61,0,6.25-.56,7.92-1.7s2.52-3,2.52-5.48a5.34,5.34,0,0,0-2.57-4.93Q120.49,853.17,114.62,853.16Z"/><path class="e" d="M101,836.68h17.42q4,0,5.5-1.24t1.53-4.44a6.44,6.44,0,0,0-2.23-5.18,9.43,9.43,0,0,0-6.3-1.91H101v-4.59h21.61a58.17,58.17,0,0,0,5.87-.16v4.32c-.09,0-.32,0-.69,0l-1.28.06q-.72,0-2.73.09v.08a10,10,0,0,1,4,3.64,10.25,10.25,0,0,1,1.18,5.15c0,3-.74,5.21-2.24,6.61s-4,2.09-7.43,2.09H101Z"/><path class="e" d="M104.62,811H101v-4.31l-7.16-1.48v-3H101v-11h3.61v11h16.55a3.78,3.78,0,0,0,3-1.08,5.22,5.22,0,0,0,1-3.54,37.66,37.66,0,0,0-.86-7.55h3.47a32.25,32.25,0,0,1,1.17,8.51q0,4.11-1.74,6.17t-5.49,2.06h-17Z"/><path class="e" d="M128.49,749.44H94.23v-4.85h30.3V727.53h4Z"/><path class="e" d="M115.71,717.11a11.48,11.48,0,0,0,7.24-2,6.73,6.73,0,0,0,2.62-5.6,9.07,9.07,0,0,0-1.13-4.58,5.57,5.57,0,0,0-3.09-2.63l1.14-4a8.73,8.73,0,0,1,4.83,4.1,14.28,14.28,0,0,1,1.67,7.12q0,6-3.73,9.22t-10.69,3.22q-6.78,0-10.42-3.16t-3.64-9.13c0-4,1.21-7,3.63-9s6.07-3.08,11-3.08h.6Zm-11.83-7.54A6.86,6.86,0,0,0,106.1,715a9.33,9.33,0,0,0,6.11,2.1V702.24Q103.89,702.95,103.88,709.57Z"/><path class="e" d="M128.49,677v5.41l-27.48,11v-5.13l17.88-6.8,1.34-.43,4.68-1.32-3-.89-3-1-17.93-7v-5.1Z"/><path class="e" d="M115.71,656.78a11.48,11.48,0,0,0,7.24-2,6.73,6.73,0,0,0,2.62-5.6,9.07,9.07,0,0,0-1.13-4.58,5.57,5.57,0,0,0-3.09-2.63l1.14-4a8.73,8.73,0,0,1,4.83,4.1,14.28,14.28,0,0,1,1.67,7.12q0,6-3.73,9.22t-10.69,3.22q-6.78,0-10.42-3.16t-3.64-9.13c0-4,1.21-7,3.63-9s6.07-3.08,11-3.08h.6Zm-11.83-7.54a6.86,6.86,0,0,0,2.22,5.39,9.33,9.33,0,0,0,6.11,2.1V641.91Q103.89,642.62,103.88,649.24Z"/><path class="e" d="M124.75,613.59l.13-7.13h3.61l-.11,9.39A6.3,6.3,0,0,1,126.1,620c-.51.38-1.9.59-4.16.64H94.41V628h-3.6V616.11h31.66a2.27,2.27,0,0,0,1.7-.64A3.13,3.13,0,0,0,124.75,613.59Z"/><path class="i" d="M1525.12,637.64a20.93,20.93,0,0,1,3.88,11.73,11.56,11.56,0,0,1-4.7,9.85q-4.71,3.51-13.09,3.5-8.82,0-13.16-3.35t-4.34-10.08q0-8.77,8.41-11.7l1.42,4.34q-5.86,2-5.87,7.31a7,7,0,0,0,3.2,6.34q3.2,2,10.34,2,13.86,0,13.86-8.66a13.16,13.16,0,0,0-.53-3.58,10.49,10.49,0,0,0-1.35-3h-8.53v7.44h-4.06V637.64Z"/><path class="i" d="M1525.68,607.47a7.08,7.08,0,0,0-.18-1.49h2.84a14.8,14.8,0,0,1,.41,3.52,4.64,4.64,0,0,1-1.33,3.7,6.93,6.93,0,0,1-4.18,1.31v.15a11.06,11.06,0,0,1,4.42,3.9,10.55,10.55,0,0,1,1.34,5.54c0,2.68-.72,4.69-2.18,6a8.46,8.46,0,0,1-6,2q-8.86,0-9-11.53l-.1-6h-1.5q-3.33,0-4.78,1.34a5.58,5.58,0,0,0-1.46,4.3,6.9,6.9,0,0,0,1.06,4.31,4.72,4.72,0,0,0,3.3,1.58l-.43,4.77q-7.41-1.17-7.41-10.74,0-5.09,2.37-7.63t6.87-2.55h11.83a6.75,6.75,0,0,0,3.06-.54A2.06,2.06,0,0,0,1525.68,607.47Zm-.15,15.47a8,8,0,0,0-1.17-4.32,8.11,8.11,0,0,0-3.12-2.92,8.56,8.56,0,0,0-4-1h-2.26l.1,4.82a14,14,0,0,0,.66,4.57,5.16,5.16,0,0,0,1.87,2.45,5.69,5.69,0,0,0,3.34.88,4.89,4.89,0,0,0,3.35-1.13A4.22,4.22,0,0,0,1525.53,622.94Z"/><path class="i" d="M1495.69,591.43h-4.87v-5.08h4.87Zm29.2-5.08V576.7h3.61v24.93h-3.61V590.92h-20.26V599H1501V586.35Z"/><path class="i" d="M1528.5,553.06h-17.65a8.17,8.17,0,0,0-5.13,1.33,5.11,5.11,0,0,0-1.67,4.26,6.56,6.56,0,0,0,2.29,5.16,9.11,9.11,0,0,0,6.24,2h15.92v4.57h-21.61c-3.2,0-5.15.05-5.87.15v-4.31a4.81,4.81,0,0,1,.69,0l1.28-.07,2.73-.09V566a9.14,9.14,0,0,1-5.2-8.79q0-4.39,2.37-6.55c1.58-1.44,4-2.16,7.3-2.16h18.31Z"/><path class="i" d="M1528.5,490.47l-14.6,9.29v6.05h14.6v4.84h-34.25V498.42c0-3.95.81-6.95,2.45-9a8.43,8.43,0,0,1,7-3.09,9.09,9.09,0,0,1,6.37,2.37,10.66,10.66,0,0,1,3.25,6.36l15.16-10.16Zm-24.71.71q-5.65,0-5.66,7.72v6.91h11.93V498.7a8.51,8.51,0,0,0-1.62-5.58A5.73,5.73,0,0,0,1503.79,491.18Z"/><path class="i" d="M1515.73,476.43a11.41,11.41,0,0,0,7.23-2.05,6.7,6.7,0,0,0,2.62-5.6,9.07,9.07,0,0,0-1.13-4.58,5.57,5.57,0,0,0-3.09-2.63l1.14-4a8.77,8.77,0,0,1,4.83,4.1,14.31,14.31,0,0,1,1.67,7.12q0,6-3.73,9.22t-10.69,3.23q-6.78,0-10.42-3.16t-3.64-9.13q0-6,3.63-9t11-3.07h.61Zm-11.84-7.54a6.83,6.83,0,0,0,2.23,5.38,9.34,9.34,0,0,0,6.1,2.11V461.55Q1503.9,462.26,1503.89,468.89Z"/><path class="i" d="M1524.08,432.55a8.41,8.41,0,0,1,3.87,3.3,10,10,0,0,1,1.21,5.13q0,5.13-3.53,7.54T1515,450.93q-14.37,0-14.37-9.95a10.89,10.89,0,0,1,1.09-5.14,7.83,7.83,0,0,1,3.58-3.31v-.06l-3.83.06h-10.64V428h32c2.86,0,4.74-.06,5.66-.16v4.37a11.83,11.83,0,0,1-1.86.18c-1,0-1.83.07-2.56.07Zm-9.24,13.66q5.63,0,8.21-1.51a5.25,5.25,0,0,0,2.58-4.91,6.13,6.13,0,0,0-2.68-5.49c-1.79-1.18-4.62-1.77-8.52-1.77q-5.46,0-8,1.71t-2.48,5.5a5.3,5.3,0,0,0,2.61,4.95C1508.35,445.7,1511.1,446.21,1514.84,446.21Z"/><path class="i" d="M1501,415h17.42c2.64,0,4.48-.42,5.5-1.25s1.54-2.31,1.54-4.44a6.45,6.45,0,0,0-2.24-5.18,9.43,9.43,0,0,0-6.3-1.91H1501v-4.59h21.61q4.8,0,5.87-.15v4.31a4.81,4.81,0,0,1-.69.05l-1.28.07-2.73.09v.07a10.13,10.13,0,0,1,4,3.64,10.35,10.35,0,0,1,1.17,5.15c0,3-.74,5.21-2.24,6.61s-4,2.1-7.43,2.1H1501Z"/><path class="i" d="M1514.74,390.81q-6.85,0-10.54-3.28t-3.68-9.47a12.47,12.47,0,0,1,2.22-7.62,9.33,9.33,0,0,1,6-3.7l.35,4.87a5.84,5.84,0,0,0-3.64,2,7.12,7.12,0,0,0-1.33,4.62q0,4,2.49,5.88t8,1.87q5.64,0,8.24-1.87t2.61-5.85a7.4,7.4,0,0,0-1.35-4.55,6.05,6.05,0,0,0-4.11-2.23l.3-4.82a9.24,9.24,0,0,1,4.43,1.84,10.2,10.2,0,0,1,3.13,4,13.31,13.31,0,0,1,1.12,5.56q0,6.21-3.65,9.47T1514.74,390.81Z"/><path class="i" d="M1504.63,359.12H1501V354.8l-7.16-1.47v-3.05H1501v-11h3.61v11h16.55a3.81,3.81,0,0,0,3-1.08,5.28,5.28,0,0,0,1-3.54,37.57,37.57,0,0,0-.86-7.54h3.48a32.65,32.65,0,0,1,1.16,8.51q0,4.11-1.73,6.17t-5.5,2.05h-17Z"/><path class="i" d="M1495.69,319.94h-4.87v-5.08h4.87Zm29.2-5.08v-9.65h3.61v24.94h-3.61V319.43h-20.26v8.1H1501V314.86Z"/><path class="i" d="M1514.74,275.76q6.93,0,10.6,3.19t3.66,9.2q0,5.89-3.7,9t-10.56,3.13q-7.1,0-10.65-3.21t-3.57-9.1q0-6.19,3.53-9.22T1514.74,275.76Zm0,4.8q-5.46,0-8.15,1.74t-2.7,5.62a6.41,6.41,0,0,0,2.75,5.76c1.82,1.22,4.53,1.83,8.1,1.83s6.26-.61,8.11-1.83a6.11,6.11,0,0,0,2.78-5.48q0-4-2.72-5.84T1514.74,280.56Z"/><path class="i" d="M1528.5,251.41h-17.65a8.17,8.17,0,0,0-5.13,1.33,5.1,5.1,0,0,0-1.67,4.25,6.56,6.56,0,0,0,2.29,5.17,9.11,9.11,0,0,0,6.24,2h15.92v4.57h-21.61c-3.2,0-5.15.05-5.87.15v-4.31a4.81,4.81,0,0,1,.69,0l1.28-.07,2.73-.09v-.07a9.14,9.14,0,0,1-5.2-8.79q0-4.4,2.37-6.55c1.58-1.44,4-2.16,7.3-2.16h18.31Z"/><line class="l" x1="779.03" y1="785.1" x2="1392.13" y2="785.1"/><path class="g" d="M1392.13,796.38a11.28,11.28,0,1,0-11.28-11.28A11.28,11.28,0,0,0,1392.13,796.38Z"/><line class="m" x1="779.03" y1="1398.21" x2="779.03" y2="1390.21"/><line class="n" x1="779.03" y1="1366.48" x2="779.03" y2="191.86"/><line class="m" x1="779.03" y1="179.99" x2="779.03" y2="171.99"/><line class="o" x1="779.03" y1="785.1" x2="1392.13" y2="631.83"/><path class="f" d="M1394.87,642.77a11.28,11.28,0,1,0-13.68-8.21A11.29,11.29,0,0,0,1394.87,642.77Z"/><line class="j" x1="779.03" y1="785.1" x2="1392.13" y2="478.55"/><path class="i" d="M784.07,795.19a11.28,11.28,0,1,1,5-15.13A11.28,11.28,0,0,1,784.07,795.19Z"/><path class="i" d="M1397.18,488.64a11.28,11.28,0,1,0-15.13-5.05A11.27,11.27,0,0,0,1397.18,488.64Z"/><line class="p" x1="1412.13" y1="186.35" x2="1412.13" y2="191.35"/><line class="q" x1="1412.13" y1="206.51" x2="1412.13" y2="451.62"/><line class="p" x1="1412.13" y1="459.2" x2="1412.13" y2="464.2"/><polygon class="i" points="1402.16 189.27 1412.13 172 1422.11 189.27 1402.16 189.27"/><polygon class="i" points="1402.16 461.28 1412.13 478.55 1422.11 461.28 1402.16 461.28"/><line class="r" x1="1441.13" y1="186.35" x2="1441.13" y2="191.35"/><line class="s" x1="1441.13" y1="206.57" x2="1441.13" y2="604.86"/><line class="r" x1="1441.13" y1="612.47" x2="1441.13" y2="617.47"/><polygon class="f" points="1431.16 189.27 1441.13 172 1451.11 189.27 1431.16 189.27"/><polygon class="f" points="1431.16 614.56 1441.13 631.83 1451.11 614.56 1431.16 614.56"/><line class="t" x1="1470.13" y1="186.35" x2="1470.13" y2="191.35"/><line class="u" x1="1470.13" y1="206.6" x2="1470.13" y2="758.13"/><line class="t" x1="1470.13" y1="765.75" x2="1470.13" y2="770.75"/><polygon class="g" points="1460.16 189.27 1470.13 172 1480.11 189.27 1460.16 189.27"/><polygon class="g" points="1460.16 767.83 1470.13 785.1 1480.11 767.83 1460.16 767.83"/></svg>