<svg xmlns="http://www.w3.org/2000/svg" viewBox="0 0 1559.06 1559.06"><defs><style>.a{fill:#344444;stroke:#1d1d1b;stroke-width:0.93px;}.a,.c,.i,.j,.k,.l,.m,.n,.o,.p,.q,.r,.s,.t{stroke-miterlimit:10;}.b{opacity:0.5;}.c,.i,.j,.k,.l,.m,.n,.o,.p,.q,.r,.s,.t{fill:none;}.c{stroke:#5ebebc;stroke-width:3px;}.d{fill:#5ebebc;}.e{fill:#a4d7e0;}.f{fill:#8ac8a7;}.g{fill:#b2e533;}.h{fill:#72dbac;}.i,.j,.o,.p{stroke:#8ac8a7;}.i,.j,.k,.n{stroke-width:6px;}.j{stroke-dasharray:16.06 20.07;}.k,.s,.t{stroke:#b2e533;}.l,.m{stroke:#59ffec;stroke-width:8px;}.m{stroke-dasharray:15.82 23.73;}.n,.q,.r{stroke:#72dbac;}.o,.p,.q,.r,.s,.t{stroke-width:4px;}.p{stroke-dasharray:10.11 15.16;}.r{stroke-dasharray:10.15 15.22;}.t{stroke-dasharray:10.17 15.25;}.u{fill:#59ffec;}</style></defs><rect class="a" x="0.11" width="1559.06" height="1559.06"/><g class="b"><rect class="c" x="165.92" y="172" width="1226.22" height="1226.21"/><line class="c" x1="165.92" y1="1244.93" x2="1392.13" y2="1244.93"/><line class="c" x1="165.92" y1="1091.65" x2="1392.13" y2="1091.65"/><line class="c" x1="165.92" y1="938.38" x2="1392.13" y2="938.38"/><line class="c" x1="165.92" y1="785.1" x2="1392.13" y2="785.1"/><line class="c" x1="165.92" y1="631.83" x2="1392.13" y2="631.83"/><line class="c" x1="165.92" y1="478.55" x2="1392.13" y2="478.55"/><line class="c" x1="165.92" y1="325.27" x2="1392.13" y2="325.27"/><line class="c" x1="1238.86" y1="172" x2="1238.86" y2="1398.2"/><line class="c" x1="1085.58" y1="172" x2="1085.58" y2="1398.2"/><line class="c" x1="932.3" y1="172" x2="932.3" y2="1398.2"/><line class="c" x1="779.03" y1="172" x2="779.03" y2="1398.2"/><line class="c" x1="625.75" y1="172" x2="625.75" y2="1398.2"/><line class="c" x1="472.47" y1="172" x2="472.47" y2="1398.2"/><line class="c" x1="319.19" y1="172" x2="319.19" y2="1398.2"/></g><line class="c" x1="165.92" y1="1398.2" x2="1420.61" y2="1398.2"/><polygon class="d" points="1416.23 1413.16 1442.13 1398.2 1416.23 1383.25 1416.23 1413.16"/><line class="c" x1="165.92" y1="1398.2" x2="165.92" y2="113.53"/><polygon class="d" points="180.88 117.9 165.92 92 150.96 117.9 180.88 117.9"/><path class="e" d="M157.9,65.79a8.49,8.49,0,0,1-3.3,3.88,10,10,0,0,1-5.13,1.2c-3.42,0-5.93-1.17-7.54-3.53s-2.41-5.9-2.41-10.64q0-14.37,9.95-14.37a10.89,10.89,0,0,1,5.14,1.1A7.78,7.78,0,0,1,157.92,47H158l-.06-3.84V32.53h4.58v32c0,2.86.05,4.75.15,5.66h-4.37a11.64,11.64,0,0,1-.18-1.85c0-1-.07-1.84-.07-2.57Zm-13.66-9.24q0,5.64,1.51,8.22a5.26,5.26,0,0,0,4.91,2.57,6.13,6.13,0,0,0,5.49-2.68q1.77-2.67,1.77-8.51,0-5.46-1.71-7.95t-5.5-2.49a5.29,5.29,0,0,0-5,2.62Q144.25,50.94,144.24,56.55Z"/><path class="e" d="M193.87,60.56a8.29,8.29,0,0,1-3.48,7.11q-3.48,2.55-9.68,2.54h-12V36h10.46q12.6,0,12.6,8.3A7.54,7.54,0,0,1,190,49.44a8.66,8.66,0,0,1-5,2.72,10.67,10.67,0,0,1,6.56,2.72A7.58,7.58,0,0,1,193.87,60.56Zm-7-15.69A4.16,4.16,0,0,0,185,41a11.36,11.36,0,0,0-5.75-1.15h-5.66V50.41h5.71Q186.91,50.41,186.91,44.87ZM189,60.13a5,5,0,0,0-2.26-4.42q-2.27-1.51-6.73-1.52h-6.4V66.33h6.75q4.46,0,6.54-1.54A5.39,5.39,0,0,0,189,60.13Z"/><path class="e" d="M1473.9,1405.79a8.49,8.49,0,0,1-3.3,3.88,10,10,0,0,1-5.13,1.2c-3.42,0-5.93-1.17-7.54-3.53s-2.41-5.9-2.41-10.64q0-14.37,10-14.37a10.89,10.89,0,0,1,5.14,1.1,7.78,7.78,0,0,1,3.31,3.58h.06l-.06-3.84v-10.64h4.58v32c0,2.86,0,4.75.15,5.66h-4.37a11.64,11.64,0,0,1-.18-1.85c0-1-.07-1.84-.07-2.57Zm-13.66-9.24q0,5.64,1.51,8.22a5.26,5.26,0,0,0,4.91,2.57,6.13,6.13,0,0,0,5.49-2.68q1.77-2.67,1.77-8.51,0-5.46-1.71-8t-5.5-2.49a5.29,5.29,0,0,0-5,2.62Q1460.25,1390.94,1460.24,1396.55Z"/><path class="e" d="M1509.87,1400.56a8.29,8.29,0,0,1-3.48,7.11q-3.48,2.55-9.67,2.54h-12V1376h10.46q12.6,0,12.6,8.3a7.54,7.54,0,0,1-1.83,5.18,8.66,8.66,0,0,1-5,2.72,10.67,10.67,0,0,1,6.56,2.72A7.58,7.58,0,0,1,1509.87,1400.56Zm-7-15.69A4.16,4.16,0,0,0,1501,1381a11.34,11.34,0,0,0-5.75-1.15h-5.66v10.56h5.71Q1502.91,1390.41,1502.91,1384.87Zm2.06,15.26a5,5,0,0,0-2.26-4.42q-2.26-1.51-6.73-1.52h-6.4v12.14h6.76q4.44,0,6.53-1.54A5.39,5.39,0,0,0,1505,1400.13Z"/><path class="e" d="M151.25,160.83q0,8.59-3.16,13.12t-9.33,4.53q-6.18,0-9.27-4.51t-3.1-13.14q0-8.85,3-13.25t9.5-4.39q6.32,0,9.33,4.43T151.25,160.83Zm-4.65,0c0-4.9-.6-8.46-1.79-10.65a6.2,6.2,0,0,0-5.9-3.29,6.44,6.44,0,0,0-6.06,3.25Q131,153.4,131,160.83q0,7.24,1.87,10.58a6.87,6.87,0,0,0,11.84-.09Q146.61,167.89,146.6,160.83Zm-10.76,3v-6.32h6v6.32Z"/><path class="e" d="M1404.54,1432q0,8.58-3.16,13.11t-9.34,4.54q-6.16,0-9.26-4.51t-3.1-13.14q0-8.87,3-13.25t9.5-4.4q6.32,0,9.33,4.43T1404.54,1432Zm-4.65,0q0-7.37-1.79-10.65a6.2,6.2,0,0,0-5.9-3.29,6.42,6.42,0,0,0-6.06,3.25q-1.85,3.26-1.84,10.69,0,7.23,1.87,10.58a6.88,6.88,0,0,0,11.84-.09Q1399.89,1439,1399.89,1432Zm-10.76,3v-6.32h6V1435Z"/><path class="e" d="M88.13,1437.35v-4.06h14.22v4.06Z"/><path class="e" d="M150.73,1434.15a9.48,9.48,0,0,1-2.84,7,9.81,9.81,0,0,1-7.18,2.8q-6.59,0-10.81-7.16a16.73,16.73,0,0,1-4.8,5.11,10.44,10.44,0,0,1-13-.79,10.32,10.32,0,0,1,.06-14.22,10,10,0,0,1,7.23-2.74q6.51,0,10.59,7.19,4.62-7,10.81-7A9.77,9.77,0,0,1,148,1427,9.56,9.56,0,0,1,150.73,1434.15Zm-23.07-.15a15.28,15.28,0,0,0-3.39-4.88,6.18,6.18,0,0,0-4.22-1.62,5.27,5.27,0,0,0-4.15,1.85,6.85,6.85,0,0,0-1.64,4.7,6.61,6.61,0,0,0,1.64,4.68,5.5,5.5,0,0,0,4.23,1.77Q124.29,1440.5,127.66,1434Zm12.19-6.35a5.93,5.93,0,0,0-4,1.6,16.4,16.4,0,0,0-3.54,4.9,15.73,15.73,0,0,0,3.41,4.87,6,6,0,0,0,4.16,1.63,5.49,5.49,0,0,0,4.23-1.82,7.34,7.34,0,0,0,0-9.32A5.48,5.48,0,0,0,139.85,1427.65Z"/><path class="e" d="M950.75,1425.86h20.89v4h-8v26.33h8v4H950.75v-4h8v-26.33h-8Z"/><path class="e" d="M997.82,1460.11v-17.65a8.12,8.12,0,0,0-1.33-5.12,5.11,5.11,0,0,0-4.25-1.68,6.59,6.59,0,0,0-5.17,2.3,9.09,9.09,0,0,0-2,6.23v15.92h-4.57V1438.5q0-4.8-.15-5.86h4.31a5.49,5.49,0,0,1,.06.68c0,.38,0,.8.06,1.29s0,1.39.09,2.73h.07a9.15,9.15,0,0,1,8.79-5.21q4.39,0,6.55,2.37t2.16,7.3v18.31Z"/><path class="e" d="M1033.62,1446.25q0,14.37-9.95,14.37-6.24,0-8.4-4.67h-.13a36.14,36.14,0,0,1,.1,4.21v10.74h-4.59v-32.57c0-2.88-.06-4.78-.16-5.69h4.45c0,.07,0,.32.07.75s.08,1.06.12,1.9.06,1.46.06,1.87h.1a8.79,8.79,0,0,1,3.24-3.87,9.66,9.66,0,0,1,5.14-1.21q5,0,7.49,3.47T1033.62,1446.25Zm-4.72,0q0-5.74-1.55-8.19a5.34,5.34,0,0,0-4.87-2.45,6,6,0,0,0-5.54,2.78q-1.7,2.77-1.7,8.42,0,5.4,1.7,7.92c1.14,1.67,3,2.51,5.49,2.51a5.31,5.31,0,0,0,4.92-2.56Q1028.9,1452.12,1028.9,1446.25Z"/><path class="e" d="M1045.38,1432.64v17.42q0,4,1.25,5.49c.82,1,2.31,1.54,4.44,1.54a6.48,6.48,0,0,0,5.18-2.23,9.43,9.43,0,0,0,1.9-6.3v-15.92h4.6v21.61q0,4.8.15,5.86h-4.32c0-.08,0-.31,0-.68s0-.8-.06-1.29,0-1.39-.09-2.73h-.08a10.06,10.06,0,0,1-3.64,4,10.21,10.21,0,0,1-5.14,1.18c-3,0-5.22-.75-6.61-2.25s-2.1-4-2.1-7.42v-18.31Z"/><path class="e" d="M1071.1,1436.24v-3.6h4.32l1.47-7.16h3v7.16h11v3.6h-11v16.56a3.78,3.78,0,0,0,1.08,3,5.28,5.28,0,0,0,3.54,1,36.85,36.85,0,0,0,7.54-.86v3.48a32.25,32.25,0,0,1-8.51,1.17c-2.74,0-4.79-.58-6.17-1.74s-2.05-3-2.05-5.5v-17Z"/><path class="e" d="M1147.81,1456.38l7.13.13v3.6l-9.39-.1a6.33,6.33,0,0,1-4.19-2.29c-.37-.5-.58-1.89-.63-4.16V1426h-7.34v-3.61h11.91v31.66a2.21,2.21,0,0,0,.63,1.7A3.15,3.15,0,0,0,1147.81,1456.38Z"/><path class="e" d="M1165,1447.34a11.52,11.52,0,0,0,2,7.24,6.74,6.74,0,0,0,5.6,2.61,9.11,9.11,0,0,0,4.59-1.13,5.54,5.54,0,0,0,2.62-3.08l4,1.14a8.73,8.73,0,0,1-4.11,4.82,14.26,14.26,0,0,1-7.12,1.68q-6,0-9.21-3.73t-3.23-10.69q0-6.78,3.16-10.43t9.13-3.64q6,0,9,3.63t3.07,11v.61Zm7.54-11.83a6.84,6.84,0,0,0-5.38,2.22,9.37,9.37,0,0,0-2.11,6.11h14.83Q1179.11,1435.5,1172.49,1435.51Z"/><path class="e" d="M1205.09,1460.11h-5.4l-11-27.47h5.13l6.81,17.87.43,1.35,1.32,4.67.89-3,1-3,7-17.92h5.11Z"/><path class="e" d="M1225.28,1447.34a11.52,11.52,0,0,0,2,7.24,6.74,6.74,0,0,0,5.6,2.61,9.11,9.11,0,0,0,4.59-1.13,5.54,5.54,0,0,0,2.62-3.08l4,1.14a8.73,8.73,0,0,1-4.11,4.82,14.26,14.26,0,0,1-7.12,1.68q-6,0-9.21-3.73t-3.23-10.69q0-6.78,3.16-10.43t9.13-3.64q6,0,9,3.63t3.07,11v.61Zm7.54-11.83a6.84,6.84,0,0,0-5.38,2.22,9.37,9.37,0,0,0-2.11,6.11h14.83Q1239.44,1435.5,1232.82,1435.51Z"/><path class="e" d="M1268.47,1456.38l7.14.13v3.6l-9.4-.1a6.33,6.33,0,0,1-4.19-2.29c-.37-.5-.58-1.89-.63-4.16V1426h-7.34v-3.61H1266v31.66a2.25,2.25,0,0,0,.63,1.7A3.15,3.15,0,0,0,1268.47,1456.38Z"/><g class="b"><path class="f" d="M346.46,1202.86l-2.6-2.6,7.88-7.88-18.33-18.33c.49,1.37.26,3.24-.71,5.59a17.64,17.64,0,0,1-3.85,5.93l-2.66-2.65a15.79,15.79,0,0,0,3.86-6.19,10.08,10.08,0,0,0,.35-6.24l3-3L355,1189.13l6.34-6.34,2.6,2.6Z"/><path class="f" d="M358.72,1162.49l-5.37-5.37,4.22-4.21,5.37,5.36Zm14.06,14.06-5.37-5.37,4.22-4.22,5.37,5.37Z"/><path class="f" d="M386.92,1162.41l-2.6-2.6,7.88-7.88-18.33-18.34q.74,2.07-.71,5.6a18,18,0,0,1-3.85,5.93l-2.66-2.66a15.85,15.85,0,0,0,3.85-6.18,10,10,0,0,0,.35-6.24l3-3,21.62,21.62,6.33-6.34,2.61,2.6Z"/></g><path class="g" d="M751.35,1173.17a9.45,9.45,0,0,1,7,2.85,9.76,9.76,0,0,1,2.81,7.18q0,6.57-7.16,10.81a16.66,16.66,0,0,1,5.1,4.79,10.42,10.42,0,0,1-.78,13,10.33,10.33,0,0,1-14.22,0,10,10,0,0,1-2.74-7.23q0-6.51,7.18-10.6-7-4.62-7-10.8a9.84,9.84,0,0,1,2.7-7.24A9.61,9.61,0,0,1,751.35,1173.17Zm-.15,23.07a15.51,15.51,0,0,0-4.87,3.4,6.12,6.12,0,0,0-1.63,4.21,5.32,5.32,0,0,0,1.85,4.16,6.87,6.87,0,0,0,4.7,1.64,6.64,6.64,0,0,0,4.69-1.64,5.52,5.52,0,0,0,1.76-4.23Q757.7,1199.63,751.2,1196.24Zm-6.35-12.19a6,6,0,0,0,1.6,4,16.71,16.71,0,0,0,4.9,3.54,16.13,16.13,0,0,0,4.88-3.41,6.07,6.07,0,0,0,1.62-4.16,5.48,5.48,0,0,0-1.81-4.23,6.69,6.69,0,0,0-4.74-1.67,6.58,6.58,0,0,0-4.58,1.67A5.47,5.47,0,0,0,744.85,1184.05Z"/><path class="g" d="M746.45,1163h-7.59v-6h7.59Zm19.88,0h-7.59v-6h7.59Z"/><path class="g" d="M766.33,1143h-3.68v-11.14H736.73c1.32.62,2.47,2.11,3.45,4.45a17.87,17.87,0,0,1,1.47,6.92H737.9a15.78,15.78,0,0,0-1.65-7.09,10,10,0,0,0-4.17-4.66v-4.22h30.57v-9h3.68Z"/><path class="f" d="M555.43,1207.37l-2.65-1.34a20.5,20.5,0,0,1-3.23-6,69.05,69.05,0,0,1-2.5-9.27,32.82,32.82,0,0,0-2.38-7.72,7.67,7.67,0,0,0-3.3-3.66,5.44,5.44,0,0,0-4.66-.4,7.43,7.43,0,0,0-3.62,3.78,6.84,6.84,0,0,0-.7,4.9,6.74,6.74,0,0,0,3,3.9l-2.49,4a10.1,10.1,0,0,1-4.52-6.23,12,12,0,0,1,1.34-8.24c1.62-3.21,3.62-5.35,6-6.42a8.4,8.4,0,0,1,7.53.42,10.48,10.48,0,0,1,4.33,4.35,27.13,27.13,0,0,1,2.71,7.83q1.37,6.56,2.2,9.24a12.89,12.89,0,0,0,2.13,4.27l8.28-16.38,3.31,1.67Z"/><path class="f" d="M554.63,1164.9l-6.78-3.43,2.69-5.32,6.78,3.42Zm17.74,9-6.78-3.43,2.7-5.32,6.77,3.43Z"/><path class="f" d="M581.39,1156l-3.28-1.66,5-9.94L560,1132.72c.9,1.15,1.25,3,1.07,5.53a17.64,17.64,0,0,1-1.81,6.84l-3.35-1.69a15.81,15.81,0,0,0,1.73-7.08,10,10,0,0,0-1.61-6l1.9-3.76,27.28,13.79,4-8,3.29,1.66Z"/><path class="h" d="M657.6,1186.47l7.86,2-1.11,4.43-7.86-2-4,16.12-3.45-.86-18-21.11,1.22-4.91,21.88,5.46,1.15-4.64,3.5.88Zm-21.68-.69,14,16.57L653,1190Z"/><path class="h" d="M650.38,1166.73l-7.37-1.84,1.44-5.79,7.37,1.84Zm19.29,4.81-7.37-1.84,1.44-5.79,7.37,1.84Z"/><path class="h" d="M674.5,1152.13l-3.57-.89,2.7-10.81-25.16-6.27q1.69,1.38,2.28,5.16a17.85,17.85,0,0,1-.25,7.06l-3.64-.9a15.89,15.89,0,0,0,.11-7.29,10.06,10.06,0,0,0-2.91-5.53l1-4.09,29.66,7.4,2.17-8.7,3.57.89Z"/><line class="i" x1="779.03" y1="785.1" x2="1392.13" y2="172"/><path class="f" d="M787,793.08a11.28,11.28,0,1,1,0-16A11.29,11.29,0,0,1,787,793.08Z"/><path class="f" d="M1400.11,180a11.28,11.28,0,1,0-15.95,0A11.29,11.29,0,0,0,1400.11,180Z"/><g class="b"><line class="i" x1="779.03" y1="785.1" x2="773.37" y2="790.76"/><line class="j" x1="759.18" y1="804.95" x2="178.67" y2="1385.45"/><line class="i" x1="171.57" y1="1392.55" x2="165.92" y2="1398.2"/></g><path class="e" d="M111.2,938q8.55,0,13.17,3.37a11.22,11.22,0,0,1,4.62,9.66q0,6.32-4.54,9.65T111.2,964q-8.57,0-13-3.3T93.7,951q0-6.27,4.41-9.63T111.2,938Zm0,5.11q-13.55,0-13.54,7.87t13.54,7.92q6.85,0,10.35-2a6.78,6.78,0,0,0,0-11.91Q117.95,943.13,111.2,943.13Z"/><path class="e" d="M101,927.18h17.42q4,0,5.5-1.25c1-.82,1.53-2.31,1.53-4.44a6.45,6.45,0,0,0-2.23-5.18,9.43,9.43,0,0,0-6.3-1.9H101v-4.6h21.61q4.8,0,5.87-.15V914l-.69,0-1.28.06q-.72,0-2.73.09v.08a10,10,0,0,1,4,3.64A10.21,10.21,0,0,1,129,923c0,3-.74,5.22-2.24,6.61s-4,2.1-7.43,2.1H101Z"/><path class="e" d="M104.62,901.46H101v-4.32l-7.16-1.47v-3H101v-11h3.61v11h16.55a3.78,3.78,0,0,0,3-1.08,5.22,5.22,0,0,0,1-3.54,37.57,37.57,0,0,0-.86-7.54h3.47a32.25,32.25,0,0,1,1.17,8.51q0,4.11-1.74,6.16c-1.16,1.38-3,2.06-5.49,2.06h-17Z"/><path class="e" d="M114.62,848.44q14.37,0,14.37,9.95,0,6.25-4.67,8.41v.13a34.8,34.8,0,0,1,4.22-.11h10.74v4.6H106.7c-2.88,0-4.77.05-5.69.15v-4.44c.07,0,.32,0,.75-.08l1.91-.11c.83,0,1.46-.07,1.86-.07v-.1a8.77,8.77,0,0,1-3.87-3.23,9.82,9.82,0,0,1-1.2-5.15c0-3.35,1.15-5.84,3.46-7.49S109.8,848.44,114.62,848.44Zm0,4.72q-5.73,0-8.19,1.55a5.36,5.36,0,0,0-2.45,4.88,6,6,0,0,0,2.78,5.53c1.86,1.14,4.66,1.7,8.42,1.7,3.61,0,6.25-.56,7.92-1.7s2.52-3,2.52-5.48a5.34,5.34,0,0,0-2.57-4.93Q120.49,853.17,114.62,853.16Z"/><path class="e" d="M101,836.68h17.42q4,0,5.5-1.24t1.53-4.44a6.44,6.44,0,0,0-2.23-5.18,9.43,9.43,0,0,0-6.3-1.91H101v-4.59h21.61a58.17,58.17,0,0,0,5.87-.16v4.32c-.09,0-.32,0-.69,0l-1.28.06q-.72,0-2.73.09v.08a10,10,0,0,1,4,3.64,10.25,10.25,0,0,1,1.18,5.15c0,3-.74,5.21-2.24,6.61s-4,2.09-7.43,2.09H101Z"/><path class="e" d="M104.62,811H101v-4.31l-7.16-1.48v-3H101v-11h3.61v11h16.55a3.78,3.78,0,0,0,3-1.08,5.22,5.22,0,0,0,1-3.54,37.66,37.66,0,0,0-.86-7.55h3.47a32.25,32.25,0,0,1,1.17,8.51q0,4.11-1.74,6.17t-5.49,2.06h-17Z"/><path class="e" d="M128.49,749.44H94.23v-4.85h30.3V727.53h4Z"/><path class="e" d="M115.71,717.11a11.48,11.48,0,0,0,7.24-2,6.73,6.73,0,0,0,2.62-5.6,9.07,9.07,0,0,0-1.13-4.58,5.57,5.57,0,0,0-3.09-2.63l1.14-4a8.73,8.73,0,0,1,4.83,4.1,14.28,14.28,0,0,1,1.67,7.12q0,6-3.73,9.22t-10.69,3.22q-6.78,0-10.42-3.16t-3.64-9.13c0-4,1.21-7,3.63-9s6.07-3.08,11-3.08h.6Zm-11.83-7.54A6.86,6.86,0,0,0,106.1,715a9.33,9.33,0,0,0,6.11,2.1V702.24Q103.89,702.95,103.88,709.57Z"/><path class="e" d="M128.49,677v5.41l-27.48,11v-5.13l17.88-6.8,1.34-.43,4.68-1.32-3-.89-3-1-17.93-7v-5.1Z"/><path class="e" d="M115.71,656.78a11.48,11.48,0,0,0,7.24-2,6.73,6.73,0,0,0,2.62-5.6,9.07,9.07,0,0,0-1.13-4.58,5.57,5.57,0,0,0-3.09-2.63l1.14-4a8.73,8.73,0,0,1,4.83,4.1,14.28,14.28,0,0,1,1.67,7.12q0,6-3.73,9.22t-10.69,3.22q-6.78,0-10.42-3.16t-3.64-9.13c0-4,1.21-7,3.63-9s6.07-3.08,11-3.08h.6Zm-11.83-7.54a6.86,6.86,0,0,0,2.22,5.39,9.33,9.33,0,0,0,6.11,2.1V641.91Q103.89,642.62,103.88,649.24Z"/><path class="e" d="M124.75,613.59l.13-7.13h3.61l-.11,9.39A6.3,6.3,0,0,1,126.1,620c-.51.38-1.9.59-4.16.64H94.41V628h-3.6V616.11h31.66a2.27,2.27,0,0,0,1.7-.64A3.13,3.13,0,0,0,124.75,613.59Z"/><path class="f" d="M288.75,1535.29a21,21,0,0,1-11.73,3.89,11.56,11.56,0,0,1-9.85-4.71q-3.51-4.71-3.5-13.09,0-8.81,3.35-13.15t10.08-4.34q8.77,0,11.7,8.4l-4.34,1.42q-2-5.87-7.31-5.86a7,7,0,0,0-6.34,3.2q-2,3.2-2,10.33,0,13.86,8.66,13.86a12.78,12.78,0,0,0,3.58-.53,10.22,10.22,0,0,0,3-1.35v-8.53h-7.44v-4.06h12.16Z"/><path class="f" d="M318.92,1535.85a7.73,7.73,0,0,0,1.49-.17v2.84a15.35,15.35,0,0,1-3.53.41,4.63,4.63,0,0,1-3.69-1.34,6.85,6.85,0,0,1-1.31-4.17h-.15a11,11,0,0,1-3.9,4.41,10.55,10.55,0,0,1-5.54,1.35c-2.68,0-4.69-.73-6.05-2.18a8.5,8.5,0,0,1-2-6q0-8.85,11.53-9l6-.1v-1.49q0-3.33-1.35-4.79a5.58,5.58,0,0,0-4.29-1.46,6.83,6.83,0,0,0-4.31,1.07,4.72,4.72,0,0,0-1.58,3.3l-4.77-.44q1.17-7.41,10.74-7.41,5.08,0,7.63,2.37t2.55,6.87v11.83a6.91,6.91,0,0,0,.53,3.06A2.08,2.08,0,0,0,318.92,1535.85Zm-15.47-.15a8,8,0,0,0,4.32-1.17,8.11,8.11,0,0,0,2.92-3.12,8.53,8.53,0,0,0,1-4v-2.26l-4.82.1a14.24,14.24,0,0,0-4.57.66,5.16,5.16,0,0,0-2.45,1.87,5.69,5.69,0,0,0-.88,3.34,4.87,4.87,0,0,0,1.13,3.35A4.19,4.19,0,0,0,303.45,1535.7Z"/><path class="f" d="M340,1535.07h9.65v3.6H324.76v-3.6h10.71V1514.8h-8.1v-3.6H340Zm-5.08-29.2V1501H340v4.88Z"/><path class="f" d="M373.33,1538.67V1521a8.12,8.12,0,0,0-1.33-5.12,5.11,5.11,0,0,0-4.26-1.68,6.57,6.57,0,0,0-5.16,2.3,9.09,9.09,0,0,0-2,6.23v15.92H356v-21.61q0-4.8-.15-5.86h4.31a4.47,4.47,0,0,1,.05.68c0,.38,0,.8.07,1.29s.05,1.39.09,2.73h.07a9.15,9.15,0,0,1,8.79-5.21q4.39,0,6.55,2.37t2.16,7.3v18.31Z"/><path class="f" d="M435.92,1538.67l-9.29-14.6h-6.05v14.6h-4.85v-34.25H428c3.95,0,6.95.82,9,2.45a8.43,8.43,0,0,1,3.09,7,9.08,9.08,0,0,1-2.37,6.37,10.66,10.66,0,0,1-6.36,3.25l10.16,15.16Zm-.71-24.7q0-5.67-7.72-5.67h-6.91v11.94h7.11a8.46,8.46,0,0,0,5.58-1.63A5.72,5.72,0,0,0,435.21,1514Z"/><path class="f" d="M450,1525.9a11.46,11.46,0,0,0,2.05,7.24,6.7,6.7,0,0,0,5.59,2.61,9.08,9.08,0,0,0,4.59-1.13,5.55,5.55,0,0,0,2.63-3.08l4,1.14a8.71,8.71,0,0,1-4.1,4.82,14.32,14.32,0,0,1-7.13,1.68q-6,0-9.21-3.73t-3.23-10.69q0-6.78,3.16-10.43t9.13-3.64q6,0,9,3.63t3.07,11v.61Zm7.54-11.83a6.84,6.84,0,0,0-5.38,2.22,9.37,9.37,0,0,0-2.11,6.11h14.83Q464.14,1514.06,457.5,1514.07Z"/><path class="f" d="M493.84,1534.25a8.49,8.49,0,0,1-3.3,3.88,10,10,0,0,1-5.13,1.2q-5.13,0-7.54-3.53t-2.41-10.64q0-14.37,10-14.37a11,11,0,0,1,5.14,1.09,7.88,7.88,0,0,1,3.31,3.58h.06l-.06-3.83V1501h4.57v32c0,2.86.06,4.75.16,5.66h-4.37a11.64,11.64,0,0,1-.18-1.85c-.05-1-.07-1.84-.07-2.57ZM480.18,1525q0,5.64,1.51,8.21a5.25,5.25,0,0,0,4.91,2.58,6.13,6.13,0,0,0,5.49-2.68q1.77-2.67,1.77-8.52,0-5.44-1.71-7.94c-1.14-1.66-3-2.49-5.5-2.49a5.3,5.3,0,0,0-4.95,2.61Q480.19,1519.41,480.18,1525Z"/><path class="f" d="M511.38,1511.2v17.42q0,4,1.25,5.49c.83,1,2.31,1.54,4.44,1.54a6.47,6.47,0,0,0,5.18-2.23,9.43,9.43,0,0,0,1.91-6.3V1511.2h4.59v21.61q0,4.8.15,5.86h-4.31a4.47,4.47,0,0,1-.05-.68c0-.38,0-.8-.07-1.29s-.05-1.39-.09-2.73h-.07a10.13,10.13,0,0,1-3.64,4,10.25,10.25,0,0,1-5.15,1.18q-4.51,0-6.61-2.25t-2.1-7.42V1511.2Z"/><path class="f" d="M535.58,1524.91q0-6.86,3.28-10.54t9.47-3.68a12.47,12.47,0,0,1,7.62,2.22,9.35,9.35,0,0,1,3.7,6l-4.87.36a5.87,5.87,0,0,0-2-3.65,7.18,7.18,0,0,0-4.62-1.33q-4,0-5.88,2.49t-1.87,8c0,3.76.62,6.5,1.87,8.24s3.19,2.6,5.85,2.6a7.4,7.4,0,0,0,4.55-1.35,6,6,0,0,0,2.23-4.11l4.82.31a9.28,9.28,0,0,1-1.84,4.43,10.09,10.09,0,0,1-4,3.12,13.31,13.31,0,0,1-5.56,1.13q-6.21,0-9.47-3.66T535.58,1524.91Z"/><path class="f" d="M567.27,1514.8v-3.6h4.32l1.47-7.16h3.05v7.16h11v3.6h-11v16.56a3.78,3.78,0,0,0,1.08,3,5.28,5.28,0,0,0,3.54,1,36.85,36.85,0,0,0,7.54-.86v3.48a32.25,32.25,0,0,1-8.51,1.17q-4.11,0-6.17-1.74t-2.05-5.5v-17Z"/><path class="f" d="M611.53,1535.07h9.65v3.6H596.24v-3.6H607V1514.8h-8.1v-3.6h12.67Zm-5.08-29.2V1501h5.08v4.88Z"/><path class="f" d="M650.63,1524.91q0,6.93-3.19,10.6t-9.2,3.67q-5.9,0-9-3.71t-3.13-10.56q0-7.08,3.21-10.65t9.1-3.57q6.2,0,9.22,3.53T650.63,1524.91Zm-4.8,0q0-5.46-1.74-8.15t-5.62-2.69a6.4,6.4,0,0,0-5.76,2.74q-1.83,2.75-1.83,8.1c0,3.55.61,6.26,1.83,8.11a6.09,6.09,0,0,0,5.48,2.78q4,0,5.84-2.71C645.23,1531.27,645.83,1528.55,645.83,1524.91Z"/><path class="f" d="M675,1538.67V1521a8.12,8.12,0,0,0-1.33-5.12,5.11,5.11,0,0,0-4.25-1.68,6.57,6.57,0,0,0-5.17,2.3,9.09,9.09,0,0,0-2,6.23v15.92h-4.57v-21.61q0-4.8-.15-5.86h4.31a4.47,4.47,0,0,1,.05.68c0,.38,0,.8.07,1.29s.05,1.39.09,2.73h.07a9.15,9.15,0,0,1,8.79-5.21q4.39,0,6.55,2.37t2.16,7.3v18.31Z"/><line class="k" x1="779.03" y1="785.1" x2="779.03" y2="1398.2"/><path class="g" d="M767.75,1398.2A11.28,11.28,0,1,0,779,1386.92,11.28,11.28,0,0,0,767.75,1398.2Z"/><line class="l" x1="779.03" y1="1398.21" x2="779.03" y2="1390.21"/><line class="m" x1="779.03" y1="1366.48" x2="779.03" y2="191.86"/><line class="l" x1="779.03" y1="179.99" x2="779.03" y2="171.99"/><line class="n" x1="779.03" y1="785.1" x2="625.75" y2="1398.2"/><path class="h" d="M614.81,1395.47a11.28,11.28,0,1,0,13.67-8.21A11.28,11.28,0,0,0,614.81,1395.47Z"/><line class="i" x1="779.03" y1="785.1" x2="472.47" y2="1398.2"/><path class="f" d="M768.94,780.06a11.28,11.28,0,1,1,5,15.13A11.28,11.28,0,0,1,768.94,780.06Z"/><path class="f" d="M462.38,1393.16a11.28,11.28,0,1,0,15.14-5A11.28,11.28,0,0,0,462.38,1393.16Z"/><line class="o" x1="180.27" y1="1422.31" x2="185.27" y2="1422.31"/><line class="p" x1="200.43" y1="1422.31" x2="445.54" y2="1422.31"/><line class="o" x1="453.12" y1="1422.31" x2="458.12" y2="1422.31"/><polygon class="f" points="183.19 1432.28 165.92 1422.31 183.19 1412.34 183.19 1432.28"/><polygon class="f" points="455.2 1432.28 472.47 1422.31 455.2 1412.34 455.2 1432.28"/><line class="q" x1="180.27" y1="1451.31" x2="185.27" y2="1451.31"/><line class="r" x1="200.49" y1="1451.31" x2="598.78" y2="1451.31"/><line class="q" x1="606.4" y1="1451.31" x2="611.4" y2="1451.31"/><polygon class="h" points="183.19 1461.28 165.92 1451.31 183.19 1441.34 183.19 1461.28"/><polygon class="h" points="608.48 1461.28 625.75 1451.31 608.48 1441.34 608.48 1461.28"/><line class="s" x1="180.27" y1="1480.31" x2="185.27" y2="1480.31"/><line class="t" x1="200.52" y1="1480.31" x2="752.05" y2="1480.31"/><line class="s" x1="759.67" y1="1480.31" x2="764.67" y2="1480.31"/><polygon class="g" points="183.19 1490.28 165.92 1480.31 183.19 1470.34 183.19 1490.28"/><polygon class="g" points="761.75 1490.28 779.02 1480.31 761.75 1470.34 761.75 1490.28"/><path class="h" d="M481.58,112.18V77.92h23.33v4H486.43V92.6h17v3.91h-17v11.71H506v4Z"/><path class="h" d="M531.29,112.18l-8.15-11.28-8.2,11.28H510l10.54-14.12L510.47,84.7h5l7.62,10.69,7.57-10.69h5.1L525.73,98l10.67,14.17Z"/><path class="h" d="M565.47,98.31q0,14.37-10,14.37-6.25,0-8.41-4.67H547a34.8,34.8,0,0,1,.11,4.22V123h-4.6V90.39c0-2.88,0-4.77-.15-5.69h4.44c0,.07,0,.32.08.75s.07,1.07.11,1.91.07,1.46.07,1.86h.1a8.77,8.77,0,0,1,3.23-3.87,9.82,9.82,0,0,1,5.15-1.2c3.35,0,5.84,1.15,7.49,3.46S565.47,93.49,565.47,98.31Zm-4.72,0q0-5.73-1.55-8.19a5.36,5.36,0,0,0-4.88-2.45,6,6,0,0,0-5.53,2.78c-1.14,1.86-1.7,4.66-1.7,8.42,0,3.61.56,6.25,1.7,7.92s3,2.52,5.48,2.52a5.34,5.34,0,0,0,4.93-2.57Q560.75,104.18,560.75,98.31Z"/><path class="h" d="M595.91,109.36a7.24,7.24,0,0,0,1.5-.18V112a15.42,15.42,0,0,1-3.53.41,4.63,4.63,0,0,1-3.69-1.33,6.86,6.86,0,0,1-1.31-4.18h-.15a11.06,11.06,0,0,1-3.9,4.42,10.61,10.61,0,0,1-5.55,1.34c-2.67,0-4.69-.72-6-2.18a8.43,8.43,0,0,1-2-6q0-8.87,11.53-9l6-.1v-1.5c0-2.22-.45-3.81-1.35-4.79a5.6,5.6,0,0,0-4.29-1.46,6.91,6.91,0,0,0-4.32,1.07A4.71,4.71,0,0,0,577.2,92l-4.77-.43q1.17-7.41,10.74-7.41c3.38,0,5.93.79,7.63,2.37s2.55,3.87,2.55,6.87v11.83a7,7,0,0,0,.53,3.06A2.07,2.07,0,0,0,595.91,109.36Zm-15.46-.15a8,8,0,0,0,4.32-1.17,8.14,8.14,0,0,0,2.92-3.13,8.49,8.49,0,0,0,1-4V98.62l-4.83.1a13.74,13.74,0,0,0-4.57.66,5.21,5.21,0,0,0-2.45,1.87,5.73,5.73,0,0,0-.87,3.33,4.85,4.85,0,0,0,1.13,3.36A4.21,4.21,0,0,0,580.45,109.21Z"/><path class="h" d="M620.16,112.18V94.53a8.17,8.17,0,0,0-1.33-5.13,5.1,5.1,0,0,0-4.25-1.67A6.56,6.56,0,0,0,609.41,90a9.11,9.11,0,0,0-2,6.24v15.92h-4.57V90.57q0-4.8-.15-5.87H607a6,6,0,0,1,.06.69c0,.37,0,.8.06,1.28s0,1.39.09,2.73h.07a9.14,9.14,0,0,1,8.79-5.2q4.4,0,6.55,2.37c1.44,1.58,2.16,4,2.16,7.3v18.31Z"/><path class="h" d="M655.2,104.33a7.22,7.22,0,0,1-3,6.13q-3,2.22-8.18,2.22t-8-1.63a7.85,7.85,0,0,1-3.57-5.17l4-.79a4.8,4.8,0,0,0,2.06,3.19q1.59,1,5.43,1,6.86,0,6.85-4.34a3.22,3.22,0,0,0-1.24-2.63,10,10,0,0,0-3.81-1.64,48.62,48.62,0,0,1-8.51-2.59,7.3,7.3,0,0,1-2.76-2.34,6.06,6.06,0,0,1-1-3.52,7,7,0,0,1,2.69-5.84c1.8-1.41,4.39-2.11,7.8-2.11A13.15,13.15,0,0,1,651.24,86a7.29,7.29,0,0,1,3.33,4.91l-4.12.51a3.74,3.74,0,0,0-1.8-2.77,8.84,8.84,0,0,0-4.54-.94q-6.23,0-6.22,3.84A3.08,3.08,0,0,0,638.94,94a8,8,0,0,0,3.39,1.47l3,.79a26.37,26.37,0,0,1,5.95,2,8.2,8.2,0,0,1,2.86,2.48A6.13,6.13,0,0,1,655.2,104.33Z"/><path class="h" d="M677.37,108.57H687v3.61H662.08v-3.61H672.8V88.31h-8.1V84.7h12.67Zm-5.08-29.2V74.5h5.08v4.87Z"/><path class="h" d="M716.47,98.41q0,6.95-3.18,10.61t-9.21,3.66q-5.9,0-9-3.7t-3.14-10.57q0-7.08,3.21-10.65t9.1-3.56q6.19,0,9.22,3.53T716.47,98.41Zm-4.8,0q0-5.44-1.74-8.15t-5.62-2.69a6.43,6.43,0,0,0-5.76,2.75q-1.83,2.73-1.83,8.09c0,3.56.61,6.26,1.83,8.12a6.12,6.12,0,0,0,5.48,2.78q4,0,5.84-2.72T711.67,98.41Z"/><path class="h" d="M740.82,112.18V94.53a8.17,8.17,0,0,0-1.33-5.13,5.1,5.1,0,0,0-4.25-1.67A6.58,6.58,0,0,0,730.07,90a9.11,9.11,0,0,0-2,6.24v15.92h-4.57V90.57q0-4.8-.15-5.87h4.32c0,.09,0,.32.05.69s0,.8.06,1.28,0,1.39.09,2.73h.07a9.14,9.14,0,0,1,8.79-5.2q4.39,0,6.55,2.37c1.44,1.58,2.16,4,2.16,7.3v18.31Z"/><path class="e" d="M807.07,109.36a7.24,7.24,0,0,0,1.5-.18V112a15.42,15.42,0,0,1-3.53.41,4.64,4.64,0,0,1-3.7-1.33,6.86,6.86,0,0,1-1.3-4.18h-.16a11.11,11.11,0,0,1-3.89,4.42,10.61,10.61,0,0,1-5.55,1.34c-2.68,0-4.69-.72-6-2.18a8.43,8.43,0,0,1-2-6q0-8.87,11.53-9l6-.1v-1.5c0-2.22-.45-3.81-1.34-4.79a5.6,5.6,0,0,0-4.29-1.46,6.91,6.91,0,0,0-4.32,1.07,4.71,4.71,0,0,0-1.57,3.3l-4.78-.43q1.17-7.41,10.74-7.41,5.08,0,7.63,2.37t2.55,6.87v11.83a6.81,6.81,0,0,0,.54,3.06A2.06,2.06,0,0,0,807.07,109.36Zm-15.46-.15a8,8,0,0,0,4.31-1.17,8.07,8.07,0,0,0,2.92-3.13,8.37,8.37,0,0,0,1-4V98.62l-4.82.1a13.7,13.7,0,0,0-4.57.66,5.16,5.16,0,0,0-2.45,1.87,5.73,5.73,0,0,0-.88,3.33,4.89,4.89,0,0,0,1.13,3.36A4.24,4.24,0,0,0,791.61,109.21Z"/><path class="e" d="M831.32,112.18V94.53A8.24,8.24,0,0,0,830,89.4a5.11,5.11,0,0,0-4.26-1.67A6.54,6.54,0,0,0,820.57,90a9.11,9.11,0,0,0-2,6.24v15.92H814V90.57a58.17,58.17,0,0,0-.16-5.87h4.32c0,.09,0,.32.05.69s0,.8.06,1.28.06,1.39.09,2.73h.08a9.14,9.14,0,0,1,8.79-5.2c2.92,0,5.11.79,6.55,2.37s2.15,4,2.15,7.3v18.31Z"/><path class="e" d="M861.33,107.76a8.41,8.41,0,0,1-3.3,3.87,10,10,0,0,1-5.13,1.21q-5.13,0-7.54-3.53T843,98.67q0-14.37,9.95-14.37A10.89,10.89,0,0,1,858,85.39,7.85,7.85,0,0,1,861.36,89h0l0-3.83V74.5h4.57v32q0,4.29.15,5.67h-4.37a13.48,13.48,0,0,1-.18-1.86c0-1-.07-1.83-.07-2.56Zm-13.66-9.24q0,5.63,1.51,8.21a5.26,5.26,0,0,0,4.91,2.58,6.14,6.14,0,0,0,5.49-2.68c1.18-1.79,1.78-4.63,1.78-8.52q0-5.46-1.72-8t-5.49-2.49a5.31,5.31,0,0,0-5,2.62C848.18,92,847.67,94.78,847.67,98.52Z"/><path class="g" d="M927.73,108.8A21,21,0,0,1,916,112.68a11.56,11.56,0,0,1-9.85-4.71q-3.51-4.71-3.51-13.08,0-8.82,3.36-13.16t10.08-4.34q8.77,0,11.7,8.41l-4.34,1.42q-2-5.86-7.31-5.87a7,7,0,0,0-6.34,3.2q-2,3.2-2,10.34,0,13.86,8.66,13.86a13.16,13.16,0,0,0,3.58-.53,10.49,10.49,0,0,0,3-1.35V98.34h-7.44V94.28h12.16Z"/><path class="g" d="M957.89,109.36a7.24,7.24,0,0,0,1.5-.18V112a15.42,15.42,0,0,1-3.53.41,4.63,4.63,0,0,1-3.69-1.33,6.86,6.86,0,0,1-1.31-4.18h-.15a11.06,11.06,0,0,1-3.9,4.42,10.61,10.61,0,0,1-5.55,1.34c-2.67,0-4.69-.72-6-2.18a8.47,8.47,0,0,1-2-6q0-8.87,11.53-9l6-.1v-1.5c0-2.22-.45-3.81-1.35-4.79a5.58,5.58,0,0,0-4.29-1.46,6.88,6.88,0,0,0-4.31,1.07,4.72,4.72,0,0,0-1.58,3.3l-4.77-.43q1.17-7.41,10.74-7.41c3.38,0,5.93.79,7.63,2.37s2.55,3.87,2.55,6.87v11.83a7,7,0,0,0,.53,3.06A2.08,2.08,0,0,0,957.89,109.36Zm-15.46-.15a8,8,0,0,0,4.32-1.17,8.14,8.14,0,0,0,2.92-3.13,8.49,8.49,0,0,0,1-4V98.62l-4.83.1a13.74,13.74,0,0,0-4.57.66,5.21,5.21,0,0,0-2.45,1.87,5.73,5.73,0,0,0-.87,3.33,4.85,4.85,0,0,0,1.13,3.36A4.22,4.22,0,0,0,942.43,109.21Z"/><path class="g" d="M964.93,88.31V84.7h4.32l1.47-7.16h3V84.7h11v3.61h-11v16.55a3.78,3.78,0,0,0,1.08,3,5.23,5.23,0,0,0,3.55,1,37.65,37.65,0,0,0,7.54-.86v3.47a32.25,32.25,0,0,1-8.51,1.17q-4.11,0-6.17-1.74t-2.06-5.49v-17Z"/><path class="g" d="M1009.19,108.57h9.64v3.61H993.9v-3.61h10.72V88.31h-8.1V84.7h12.67Zm-5.08-29.2V74.5h5.08v4.87Z"/><path class="g" d="M1042.47,112.18V94.53a8.17,8.17,0,0,0-1.33-5.13,5.1,5.1,0,0,0-4.25-1.67,6.58,6.58,0,0,0-5.17,2.29,9.16,9.16,0,0,0-2,6.24v15.92h-4.57V90.57q0-4.8-.15-5.87h4.32c0,.09,0,.32,0,.69s0,.8.06,1.28,0,1.39.09,2.73h.08a9.12,9.12,0,0,1,8.78-5.2q4.4,0,6.55,2.37c1.44,1.58,2.16,4,2.16,7.3v18.31Z"/><path class="g" d="M1066.21,122.94a12,12,0,0,1-6.85-1.75,7.78,7.78,0,0,1-3.3-5l4.67-.63a4.73,4.73,0,0,0,1.87,2.93,6.28,6.28,0,0,0,3.77,1q6.3,0,6.29-8v-4.92h-.05a9.08,9.08,0,0,1-3.45,4,10,10,0,0,1-5.26,1.34c-3.35,0-5.8-1.09-7.35-3.29s-2.32-5.64-2.32-10.34.83-8.32,2.49-10.58,4.21-3.39,7.67-3.39a9.19,9.19,0,0,1,5,1.34,8.61,8.61,0,0,1,3.26,3.79h.07c0-.51,0-1.37.11-2.58a12.79,12.79,0,0,1,.2-2.12h4.34c-.1.92-.15,2.81-.15,5.69v21q0,5.77-2.69,8.67C1072.72,122,1070,122.94,1066.21,122.94Zm6.45-24.75a13.57,13.57,0,0,0-1.9-7.71,6,6,0,0,0-5.23-2.81,5.51,5.51,0,0,0-5,2.43c-1,1.62-1.55,4.31-1.55,8.09a22.52,22.52,0,0,0,.65,6,6,6,0,0,0,2,3.24,7.14,7.14,0,0,0,7.63-.19,7.66,7.66,0,0,0,2.53-3.53A15.69,15.69,0,0,0,1072.66,98.19Z"/><path class="u" d="M714.49,504.72h30.29v4.82H714.49v11.25h-4V493.47h4Z"/><path class="u" d="M707.1,487.86v-4.6H717c1,0,2.67.08,5,.23v-.08a9,9,0,0,1-5.2-8.6q0-8.9,9.67-8.89h18.31v4.59H727.13a8.17,8.17,0,0,0-5.13,1.34,5.12,5.12,0,0,0-1.67,4.25,6.59,6.59,0,0,0,2.3,5.17,9.14,9.14,0,0,0,6.23,2h15.92v4.57Z"/><path class="u" d="M721.47,435.86a32.34,32.34,0,0,0-.48,5.38,8.12,8.12,0,0,0,3.07,6.6,11.93,11.93,0,0,0,7.82,2.51h12.9v4.57H727a35.45,35.45,0,0,0-4.54.35,43,43,0,0,0-5.13,1V451.9a31.69,31.69,0,0,1,6.35-1.22v-.12a16.14,16.14,0,0,1-4.18-2.49,7.81,7.81,0,0,1-2-2.9,10.93,10.93,0,0,1-.67-4.08,31.46,31.46,0,0,1,.43-5.23Z"/><path class="u" d="M732,424.05a11.46,11.46,0,0,0,7.24-2.05,6.71,6.71,0,0,0,2.61-5.6,9.07,9.07,0,0,0-1.13-4.58,5.55,5.55,0,0,0-3.08-2.63l1.14-4a8.71,8.71,0,0,1,4.82,4.1,14.31,14.31,0,0,1,1.68,7.12q0,6-3.73,9.22t-10.69,3.23q-6.78,0-10.43-3.16t-3.64-9.13q0-6,3.63-9t11-3.07H732Zm-11.83-7.54a6.84,6.84,0,0,0,2.22,5.38,9.36,9.36,0,0,0,6.1,2.11V409.17Q720.18,409.88,720.18,416.51Z"/><path class="u" d="M736.93,375.14a7.26,7.26,0,0,1,6.14,3q2.22,3,2.22,8.19t-1.64,8a7.8,7.8,0,0,1-5.17,3.57l-.78-4a4.78,4.78,0,0,0,3.18-2.07c.67-1.06,1-2.86,1-5.42q0-6.85-4.35-6.85a3.2,3.2,0,0,0-2.62,1.24,9.88,9.88,0,0,0-1.64,3.81,48.41,48.41,0,0,1-2.59,8.5,7.37,7.37,0,0,1-2.35,2.77,6.11,6.11,0,0,1-3.52,1A7,7,0,0,1,719,394q-2.1-2.68-2.1-7.79a13.22,13.22,0,0,1,1.68-7.13,7.31,7.31,0,0,1,4.92-3.33l.51,4.11a3.76,3.76,0,0,0-2.77,1.81,8.74,8.74,0,0,0-.94,4.54q0,6.22,3.83,6.22a3.07,3.07,0,0,0,2.44-1A8.16,8.16,0,0,0,728,388l.79-3a26.92,26.92,0,0,1,2-6,8.14,8.14,0,0,1,2.47-2.85A6.16,6.16,0,0,1,736.93,375.14Z"/><path class="u" d="M707.1,367.2v-4.6H717c1,0,2.67.08,5,.23v-.08a9,9,0,0,1-5.2-8.6q0-8.89,9.67-8.89h18.31v4.59H727.13a8.17,8.17,0,0,0-5.13,1.34,5.12,5.12,0,0,0-1.67,4.25,6.59,6.59,0,0,0,2.3,5.17,9.14,9.14,0,0,0,6.23,2h15.92v4.57Z"/><path class="u" d="M731,313.87q6.93,0,10.6,3.19c2.45,2.13,3.67,5.19,3.67,9.21s-1.24,6.93-3.71,9-6,3.14-10.56,3.14-8.27-1.07-10.65-3.21-3.57-5.18-3.57-9.11q0-6.19,3.53-9.21T731,313.87Zm0,4.8q-5.46,0-8.15,1.74c-1.8,1.16-2.69,3-2.69,5.63a6.42,6.42,0,0,0,2.74,5.76q2.75,1.83,8.1,1.83c3.55,0,6.26-.61,8.11-1.83a6.14,6.14,0,0,0,2.78-5.48c0-2.7-.9-4.64-2.72-5.84S734.66,318.67,731,318.67Z"/><path class="u" d="M741.05,290.36l.12-7.13h3.61l-.1,9.39a6.33,6.33,0,0,1-2.29,4.19c-.5.37-1.89.58-4.16.64H710.71v7.33H707.1v-11.9h31.66a2.27,2.27,0,0,0,1.7-.64A3.15,3.15,0,0,0,741.05,290.36Z"/><path class="u" d="M740.36,259.51a8.41,8.41,0,0,1,3.87,3.3,9.94,9.94,0,0,1,1.21,5.13q0,5.13-3.53,7.54t-10.64,2.41q-14.37,0-14.37-9.95A11,11,0,0,1,718,262.8a7.88,7.88,0,0,1,3.58-3.31v-.06l-3.83.06H707.1v-4.57h32c2.86,0,4.75-.06,5.66-.16v4.37a11.64,11.64,0,0,1-1.85.18c-1,.05-1.84.07-2.57.07Zm-9.24,13.66q5.64,0,8.21-1.51a5.25,5.25,0,0,0,2.58-4.91,6.13,6.13,0,0,0-2.68-5.49q-2.67-1.77-8.52-1.77-5.44,0-7.94,1.71t-2.49,5.5a5.3,5.3,0,0,0,2.61,4.95Q725.52,273.17,731.12,273.17Z"/></svg>