<svg xmlns="http://www.w3.org/2000/svg" xmlns:xlink="http://www.w3.org/1999/xlink" viewBox="0 0 1559.06 1559.06"><defs><style>.a{fill:#344444;stroke:#1d1d1b;stroke-width:0.79px;}.a,.c,.e,.f,.g,.j,.k{stroke-miterlimit:10;}.b{opacity:0.6;}.c,.j,.k{fill:none;}.c,.g{stroke:#5ebebc;}.c{stroke-width:3.34px;}.d{fill:#a4d7e0;}.e,.h{fill:#72dbac;}.e,.f{fill-opacity:0.1;}.e,.j{stroke:#72dbac;}.e{stroke-width:5.65px;}.f,.l{fill:#b2e533;}.f,.k{stroke:#b2e533;}.f{stroke-width:5.53px;}.g{stroke-width:3.83px;fill:url(#a);}.i{opacity:0.5;}.j,.k{stroke-width:10px;}</style><radialGradient id="a" cx="780.35" cy="798.35" r="83.27" gradientTransform="translate(0 -233.71) scale(1 1.29)" gradientUnits="userSpaceOnUse"><stop offset="0" stop-color="#5ebebc" stop-opacity="0.5"/><stop offset="0.59" stop-color="#406665" stop-opacity="0.86"/><stop offset="1" stop-color="#344444"/></radialGradient></defs><rect class="a" width="1559.06" height="1559.06"/><g class="b"><circle class="c" cx="779.58" cy="779.73" r="608.49"/><circle class="c" cx="779.58" cy="779.73" r="486.79"/><circle class="c" cx="779.58" cy="779.73" r="365.1"/><circle class="c" cx="779.58" cy="779.73" r="243.4"/><circle class="c" cx="779.58" cy="779.73" r="121.7"/><line class="c" x1="779.58" y1="901.43" x2="779.58" y2="1388.23"/><line class="c" x1="840.45" y1="885.16" x2="1083.83" y2="1306.7"/><line class="c" x1="885.01" y1="840.6" x2="1306.55" y2="1083.98"/><line class="c" x1="901.28" y1="779.73" x2="1388.08" y2="779.73"/><line class="c" x1="885.01" y1="718.86" x2="1306.55" y2="475.49"/><line class="c" x1="840.45" y1="674.3" x2="1083.83" y2="252.76"/><line class="c" x1="779.58" y1="658.03" x2="779.58" y2="171.24"/><line class="c" x1="718.71" y1="674.3" x2="475.34" y2="252.76"/><line class="c" x1="674.15" y1="718.86" x2="252.61" y2="475.49"/><line class="c" x1="657.88" y1="779.73" x2="171.09" y2="779.73"/><line class="c" x1="674.15" y1="840.6" x2="252.61" y2="1083.98"/><line class="c" x1="718.71" y1="885.16" x2="475.34" y2="1306.7"/></g><path class="d" d="M767.88,150.3q-5.88,0-9-3.94t-3.07-11.5v-5.44q0-7.65,3.07-11.64t9-4q5.88,0,8.93,4t3,11.64v5.44q0,7.56-3.07,11.5T767.88,150.3Zm0-4q4.05,0,5.81-2.67t1.76-8.77v-5.44c0-4.15-.59-7.13-1.76-8.92s-3.11-2.69-5.81-2.69-4.64.89-5.81,2.69-1.76,4.77-1.76,8.92v5.44q0,6.09,1.76,8.77T767.88,146.3Zm0-10.78a4.71,4.71,0,0,1-2.31-.49,1.93,1.93,0,0,1-.9-1.87V131a2,2,0,0,1,.9-1.85,4.6,4.6,0,0,1,2.31-.51,4.49,4.49,0,0,1,2.29.51A2,2,0,0,1,771,131v2.18a1.94,1.94,0,0,1-.89,1.87A4.63,4.63,0,0,1,767.88,135.52Z"/><path class="d" d="M796.59,134.45a9.88,9.88,0,0,1-6.45-2c-1.64-1.32-2.45-3.36-2.45-6.12v-4.14c0-2.76.81-4.82,2.45-6.19a11.26,11.26,0,0,1,12.93,0q2.43,2.06,2.43,6.19v4.14q0,4.14-2.45,6.12A9.91,9.91,0,0,1,796.59,134.45Zm0-3.87a5.36,5.36,0,0,0,3.48-1,4,4,0,0,0,1.2-3.25v-4.14a4.18,4.18,0,0,0-1.2-3.29,5.1,5.1,0,0,0-3.48-1.07,5,5,0,0,0-3.51,1.07,4.24,4.24,0,0,0-1.16,3.29v4.14a4,4,0,0,0,1.16,3.25A5.29,5.29,0,0,0,796.59,130.58Z"/><path class="d" d="M729.37,1448.8v-4h9.8v-26.27h-1.3a8.76,8.76,0,0,1-3.89,3.79,9.17,9.17,0,0,1-5.5.58l-.44-4.37a11.27,11.27,0,0,0,6.27-1,13.06,13.06,0,0,0,5-4.39h4.32v31.61h8.9v4Z"/><path class="d" d="M767.88,1449.25c-4.22,0-7.27-.76-9.17-2.29s-2.85-4-2.85-7.37v-1a8,8,0,0,1,1.85-5.48,7.38,7.38,0,0,1,5.14-2.44v-1.3a6.65,6.65,0,0,1-4.34-2,6.33,6.33,0,0,1-1.76-4.67v-1.43c0-3,.88-5.17,2.65-6.52s4.59-2,8.48-2,6.71.67,8.48,2,2.65,3.53,2.65,6.52v1.43a6.37,6.37,0,0,1-1.76,4.67,6.65,6.65,0,0,1-4.34,2v1.3a7.34,7.34,0,0,1,5.14,2.47,8.09,8.09,0,0,1,1.85,5.45v1q0,5.07-2.85,7.37T767.88,1449.25Zm0-3.92c2.82,0,4.78-.45,5.9-1.36s1.67-2.51,1.67-4.83v-.75q0-3.53-1.67-4.9c-1.12-.92-3.08-1.38-5.9-1.38s-4.79.46-5.9,1.38-1.67,2.55-1.67,4.9v.75q0,3.48,1.67,4.83T767.88,1445.33Zm0-17.23c2.49,0,4.23-.37,5.21-1.13s1.47-2.1,1.47-4v-1.2c0-1.87-.49-3.19-1.47-3.94s-2.72-1.14-5.21-1.14-4.23.38-5.21,1.14-1.47,2.07-1.47,3.94v1.2c0,1.93.49,3.27,1.47,4S765.38,1428.1,767.88,1428.1Z"/><path class="d" d="M796.59,1449.25q-5.88,0-9-3.94t-3.07-11.51v-5.43q0-7.65,3.07-11.64t9-4q5.86,0,8.92,4t3.05,11.64v5.43q0,7.58-3.07,11.51T796.59,1449.25Zm0-4q4,0,5.81-2.67t1.76-8.77v-5.43c0-4.15-.59-7.13-1.76-8.92s-3.11-2.7-5.81-2.7-4.64.9-5.81,2.7-1.76,4.77-1.76,8.92v5.43q0,6.1,1.76,8.77T796.59,1445.24Zm0-10.77a4.71,4.71,0,0,1-2.31-.49,1.93,1.93,0,0,1-.89-1.87v-2.18a1.94,1.94,0,0,1,.89-1.85,4.6,4.6,0,0,1,2.31-.51,4.47,4.47,0,0,1,2.29.51,2,2,0,0,1,.87,1.85v2.18a1.93,1.93,0,0,1-.89,1.87A4.63,4.63,0,0,1,796.59,1434.47Z"/><path class="d" d="M825.3,1433.4a9.94,9.94,0,0,1-6.45-2q-2.45-2-2.45-6.12v-4.14q0-4.14,2.45-6.19a11.22,11.22,0,0,1,12.93,0q2.43,2.05,2.43,6.19v4.14q0,4.14-2.45,6.12A10,10,0,0,1,825.3,1433.4Zm0-3.87a5.4,5.4,0,0,0,3.48-1,4,4,0,0,0,1.2-3.25v-4.14a4.22,4.22,0,0,0-1.2-3.3,5.08,5.08,0,0,0-3.48-1.06,5,5,0,0,0-3.51,1.06,4.31,4.31,0,0,0-1.16,3.3v4.14a4.05,4.05,0,0,0,1.16,3.25A5.35,5.35,0,0,0,825.3,1429.53Z"/><path class="d" d="M1420.47,789q-5.29,0-8-1.94a9.8,9.8,0,0,1-3.57-6.25l4.86-1a7,7,0,0,0,2.09,4.1,7.69,7.69,0,0,0,4.67,1.11q4,0,5.79-2.09c1.19-1.4,1.78-3.68,1.78-6.86v-4.27h-.89a7.33,7.33,0,0,1-3.25,2.56,12.87,12.87,0,0,1-4.9.82c-3.47,0-6.09-1-7.88-2.94a10.85,10.85,0,0,1-2.67-7.61v-1q0-5.39,3.12-8.26t8.9-2.87q6.29,0,9.15,3.45t2.87,9.29V776q0,5.88-2.89,9.42T1420.47,789Zm.14-17.85c2.52,0,4.41-.58,5.65-1.74s1.87-2.92,1.87-5.3v-.58c0-2.37-.62-4.14-1.87-5.29s-3.13-1.74-5.65-1.74-4.41.58-5.66,1.74-1.86,2.92-1.86,5.29v.58c0,2.38.62,4.14,1.86,5.3S1418.09,771.14,1420.61,771.14Z"/><path class="d" d="M1449.28,789q-5.88,0-9-3.94t-3.07-11.51v-5.43c0-5.1,1-9,3.07-11.64s5-4,9-4,6.89,1.33,8.93,4,3,6.54,3,11.64v5.43q0,7.58-3.08,11.51C1456.18,787.67,1453.19,789,1449.28,789Zm0-4c2.7,0,4.63-.89,5.81-2.67s1.75-4.7,1.75-8.77v-5.43c0-4.16-.58-7.13-1.75-8.93s-3.11-2.69-5.81-2.69-4.64.9-5.81,2.69-1.76,4.77-1.76,8.93v5.43c0,4.07.58,7,1.76,8.77S1446.58,785,1449.28,785Zm0-10.77a4.76,4.76,0,0,1-2.32-.49,2,2,0,0,1-.89-1.87v-2.18a2,2,0,0,1,.89-1.85,4.64,4.64,0,0,1,2.32-.51,4.49,4.49,0,0,1,2.29.51,2,2,0,0,1,.87,1.85v2.18a2,2,0,0,1-.89,1.87A4.65,4.65,0,0,1,1449.28,774.21Z"/><path class="d" d="M1478,773.14a9.94,9.94,0,0,1-6.45-2c-1.64-1.32-2.45-3.36-2.45-6.12V760.9c0-2.76.81-4.83,2.45-6.19a11.22,11.22,0,0,1,12.93,0c1.62,1.36,2.42,3.43,2.42,6.19V765q0,4.14-2.44,6.12A10,10,0,0,1,1478,773.14Zm0-3.87a5.39,5.39,0,0,0,3.47-1,4,4,0,0,0,1.21-3.25V760.9a4.21,4.21,0,0,0-1.21-3.3,6.24,6.24,0,0,0-7,0,4.3,4.3,0,0,0-1.15,3.3V765a4.06,4.06,0,0,0,1.15,3.25A5.39,5.39,0,0,0,1478,769.27Z"/><path class="d" d="M58.66,788.54V781a9.72,9.72,0,0,1,2-6.41q2-2.35,6.45-3.69l6.06-1.78a7.92,7.92,0,0,0,3.6-1.83,4.65,4.65,0,0,0,1.07-3.34V762.1c0-2.05-.5-3.5-1.49-4.34s-2.87-1.27-5.63-1.27q-3.78,0-5.28,1.58t-1.85,6l-4.45-.44q.36-6.1,3-8.64t8.57-2.54q5.84,0,8.73,2.27t2.89,6.9v2.94a7.41,7.41,0,0,1-1.91,5.34,14.18,14.18,0,0,1-6.32,3.3L67.92,775a8.89,8.89,0,0,0-3.5,1.8c-.87.79-1.31,2.15-1.31,4.08v3.65H82.7v4Z"/><path class="d" d="M94.94,788.54a151.5,151.5,0,0,1,4.61-17.25A62.38,62.38,0,0,1,107,757.38H87.37v-4.45h24v4.45a87,87,0,0,0-7.52,15,91.49,91.49,0,0,0-4,16.14Z"/><path class="d" d="M128.1,789c-3.91,0-6.9-1.32-8.94-3.94s-3.07-6.46-3.07-11.51v-5.43c0-5.1,1-9,3.07-11.64s5-4,9-4,6.89,1.33,8.93,4,3,6.54,3,11.64v5.43q0,7.58-3.07,11.51T128.1,789Zm0-4q4.05,0,5.81-2.67c1.18-1.78,1.76-4.7,1.76-8.77v-5.43c0-4.16-.58-7.13-1.76-8.93s-3.11-2.69-5.81-2.69-4.63.9-5.81,2.69-1.75,4.77-1.75,8.93v5.43q0,6.11,1.75,8.77C123.47,784.09,125.4,785,128.1,785Zm0-10.77a4.71,4.71,0,0,1-2.31-.49,2,2,0,0,1-.89-1.87v-2.18a2,2,0,0,1,.89-1.85,4.6,4.6,0,0,1,2.31-.51,4.53,4.53,0,0,1,2.3.51,2,2,0,0,1,.87,1.85v2.18a2,2,0,0,1-.89,1.87A4.7,4.7,0,0,1,128.1,774.21Z"/><path class="d" d="M156.82,773.14a10,10,0,0,1-6.46-2q-2.45-2-2.45-6.12V760.9c0-2.76.82-4.83,2.45-6.19a11.22,11.22,0,0,1,12.93,0c1.62,1.36,2.43,3.43,2.43,6.19V765q0,4.14-2.45,6.12A9.94,9.94,0,0,1,156.82,773.14Zm0-3.87a5.39,5.39,0,0,0,3.47-1,4,4,0,0,0,1.2-3.25V760.9a4.21,4.21,0,0,0-1.2-3.3,6.24,6.24,0,0,0-7,0,4.3,4.3,0,0,0-1.16,3.3V765a4.07,4.07,0,0,0,1.16,3.25A5.36,5.36,0,0,0,156.82,769.27Z"/><path class="e" d="M779.15,174.85c382.76,0,559.25,317.93,559.25,573.63,0,194.29-162.38,391.74-307,399.42-62,3.29-81.69-4.16-161.21,35.29-44.37,22-57.16,50.06-91.05,50.06s-46.68-28.06-91-50.06c-79.53-39.45-99.23-32-161.21-35.29-144.61-7.68-307-205.13-307-399.42C219.91,492.78,396.39,174.85,779.15,174.85Z"/><path class="f" d="M780.3,174.84c39.58-1.61,140.88-.4,238.62,63.17,30.77,20,113.58,74.76,142.2,179.13,18.94,69.06,5.51,128.54,1.41,144.76-17.72,70.11-46.58,65.45-57.91,121.91-17.15,85.4,43.66,122.06,17,203-3.88,11.75-15,44-43.79,66.4-50,38.86-133.11,32.29-211.89-15.54-1.08,2.63-27.07,63.17-86.17,70.62-59.09-7.45-85.08-68-86.16-70.62-78.78,47.83-161.88,54.4-211.89,15.54-28.83-22.4-39.91-54.65-43.79-66.4-26.71-80.92,34.1-117.58,16.95-203C443.5,627.35,414.64,632,396.92,561.9c-4.1-16.22-17.53-75.7,1.41-144.76C427,312.77,509.75,258,540.53,238c97.74-63.57,199-64.78,238.62-63.17"/><path class="g" d="M854.44,775.61a105.52,105.52,0,0,0-7.2-21.22c-1.93-4.29-3.73-8.68-5.3-13.22-10.24-29.67-29.09-46.17-52-51l-4.63-8.64c-2.53-5.34-8.85-5.34-11.38,0l-4.63,8.63c-22.33,4.67-40.76,20.17-51.2,48.62-2.19,6-4.58,11.86-7,17.66a107.43,107.43,0,0,0-6.3,19.14c-10.05,14.59-18.5,6.9-18.5,17.68,0,12.09,9.52.36,16.18,1.06-.12,2.84-.17,1.71-.15,4.87.45,57.33,44,82,77.34,82s77.35-25.54,77.35-83.13c0-2.75-.06-1.26-.17-3.78,6.65-.73,16.19,11,16.19-1.06C873,782.52,864.5,790.21,854.44,775.61Z"/><path class="h" d="M188.42,81.66a22.49,22.49,0,0,1-7.94-1.37,15.43,15.43,0,0,1-6.62-5l3.41-3.21a12.8,12.8,0,0,0,4.75,4,15,15,0,0,0,6.55,1.32,9.12,9.12,0,0,0,5.64-1.63,5.25,5.25,0,0,0,2.16-4.42,4.94,4.94,0,0,0-1.85-4.14c-1.23-1-3.65-2-7.28-3q-6.9-2-9.4-4.3a8.46,8.46,0,0,1-2.51-6.57c0-3.28,1.09-5.75,3.29-7.42a12.74,12.74,0,0,1,8-2.51,20.52,20.52,0,0,1,7.54,1.4,14.78,14.78,0,0,1,6.31,4.94L197.17,53a11.79,11.79,0,0,0-4.73-4,13.52,13.52,0,0,0-5.76-1.32,8.48,8.48,0,0,0-4.78,1.2,4.51,4.51,0,0,0-1.8,4,4.63,4.63,0,0,0,2,4c1.3,1,3.88,2,7.72,3.1q6.53,1.89,8.92,4.13a8.51,8.51,0,0,1,2.38,6.5,9.62,9.62,0,0,1-3.87,8.28A14.54,14.54,0,0,1,188.42,81.66Z"/><path class="h" d="M219.48,81.85a17.73,17.73,0,0,1-3.38-.35,19.85,19.85,0,0,1-3.33-1v10.3H208V53h4.73v4.72h1.42a9.24,9.24,0,0,1,8.27-5.2,8.4,8.4,0,0,1,6.74,2.91,11.75,11.75,0,0,1,2.48,7.87V71A10,10,0,0,1,228.39,79Q225.11,81.85,219.48,81.85Zm0-4.16q4,0,5.75-1.6C226.36,75,227,73.3,227,70.93V63.27q0-3.26-1.35-4.75A5.57,5.57,0,0,0,221.28,57a8.6,8.6,0,0,0-4.4,1.19A15.3,15.3,0,0,0,212.77,62V75.9a12.48,12.48,0,0,0,3,1.34A13.2,13.2,0,0,0,219.43,77.69Z"/><path class="h" d="M263.82,75.14A9.51,9.51,0,0,1,260,80.27q-2.61,1.58-8,1.58c-3.75,0-6.67-.9-8.75-2.72s-3.12-4.49-3.12-8.06V63.46c0-3.65,1.1-6.39,3.29-8.2A13,13,0,0,1,252,52.54a12.67,12.67,0,0,1,8.55,2.77q3.23,2.76,3.22,8.48v4.35H244.82v3q0,3.55,1.77,5.13a7.76,7.76,0,0,0,5.32,1.58,9.92,9.92,0,0,0,5-.94,5.89,5.89,0,0,0,2.37-3.07Zm-19-11.68V64.6H259v-.71q0-3.82-1.77-5.58a7.27,7.27,0,0,0-5.32-1.75,7.48,7.48,0,0,0-5.32,1.68Q244.82,59.92,244.82,63.46Z"/><path class="h" d="M295.87,75.14A9.51,9.51,0,0,1,292,80.27q-2.61,1.58-8,1.58c-3.75,0-6.67-.9-8.75-2.72s-3.12-4.49-3.12-8.06V63.46c0-3.65,1.1-6.39,3.29-8.2A13,13,0,0,1,284,52.54a12.67,12.67,0,0,1,8.55,2.77q3.22,2.76,3.22,8.48v4.35H276.87v3q0,3.55,1.77,5.13A7.76,7.76,0,0,0,284,77.83a9.92,9.92,0,0,0,5-.94,5.89,5.89,0,0,0,2.37-3.07Zm-19-11.68V64.6h14.18v-.71q0-3.82-1.77-5.58A7.27,7.27,0,0,0,284,56.56a7.48,7.48,0,0,0-5.32,1.68Q276.87,59.92,276.87,63.46Z"/><path class="h" d="M316.67,81.85q-6.19,0-9.33-2.72t-3.15-8V63.46q0-5.39,3.15-8.15t9.29-2.77q5.47,0,8.43,2.49a9.88,9.88,0,0,1,3.29,7.25l-4.63.29a5.8,5.8,0,0,0-1.94-4.35,8.1,8.1,0,0,0-5.2-1.42q-3.88,0-5.77,1.63a6.29,6.29,0,0,0-1.89,5v7.66A6,6,0,0,0,310.84,76c1.27,1.07,3.22,1.61,5.83,1.61a9.06,9.06,0,0,0,5.16-1.21,4.46,4.46,0,0,0,1.89-3.61l4.63.28a8.61,8.61,0,0,1-3.26,6.57C323.13,81.11,320.33,81.85,316.67,81.85Z"/><path class="h" d="M336.24,81.38V43.56H341V57.74h1.42a8.26,8.26,0,0,1,3.26-3.8,9.32,9.32,0,0,1,5.06-1.4,8.81,8.81,0,0,1,6.71,2.6,9.84,9.84,0,0,1,2.46,7V81.38h-4.73V63.18a6.53,6.53,0,0,0-1.44-4.56A5.3,5.3,0,0,0,349.57,57a8.58,8.58,0,0,0-4.32,1.28A17,17,0,0,0,341,62V81.38Z"/><path class="h" d="M417.84,76.65a9.35,9.35,0,0,1-3.41,3.83,8.88,8.88,0,0,1-4.87,1.37A8.45,8.45,0,0,1,402.75,79c-1.6-1.89-2.41-4.54-2.41-8v-7.7a10.1,10.1,0,0,1,3.22-8c2.14-1.89,5.14-2.84,9-2.84a16.81,16.81,0,0,1,3.4.36,19,19,0,0,1,3.31,1V43.56H424V81.38h-4.73V76.65Zm-7.1.71a8.51,8.51,0,0,0,4.4-1.23,15.69,15.69,0,0,0,4.11-3.73V58.5a11.7,11.7,0,0,0-3.12-1.35,13.41,13.41,0,0,0-3.54-.45c-2.55,0-4.45.56-5.67,1.68a6.53,6.53,0,0,0-1.85,5.08v7.61a6.81,6.81,0,0,0,1.42,4.73A5.46,5.46,0,0,0,410.74,77.36Z"/><path class="h" d="M451.11,81.62a9.09,9.09,0,0,1-6.8-2.51,9.42,9.42,0,0,1-2.46-6.9V57.27h-10.4V53h15.13V72.26A5.46,5.46,0,0,0,447.73,76a4.55,4.55,0,0,0,3.53,1.27,12.92,12.92,0,0,0,2.43-.26,11.35,11.35,0,0,0,2.29-.63l.95,4.11a15.26,15.26,0,0,1-2.65.78A16.23,16.23,0,0,1,451.11,81.62Zm-6.9-33.76a6.48,6.48,0,0,1-2.9-.56,2.16,2.16,0,0,1-1.12-2.13v-.33a2.25,2.25,0,0,1,1.12-2.2,7.45,7.45,0,0,1,5.81,0,2.26,2.26,0,0,1,1.11,2.2v.33a2.17,2.17,0,0,1-1.13,2.13A6.58,6.58,0,0,1,444.21,47.86Z"/><path class="h" d="M466.81,81.38V53h4.73v4.72H473a7.47,7.47,0,0,1,3-3.94,9.13,9.13,0,0,1,4.92-1.26,7.2,7.2,0,0,1,5.29,2.11,8,8,0,0,1,2.13,5.93v4.25h-4.49V62.28a5.64,5.64,0,0,0-1.21-4A4.8,4.8,0,0,0,479,57a7.77,7.77,0,0,0-4,1.09,11,11,0,0,0-3.38,3.41V81.38Z"/><path class="h" d="M520.23,75.14a9.53,9.53,0,0,1-3.88,5.13c-1.73,1-4.4,1.58-8,1.58-3.75,0-6.66-.9-8.74-2.72s-3.12-4.49-3.12-8.06V63.46c0-3.65,1.09-6.39,3.28-8.2a13,13,0,0,1,8.58-2.72,12.71,12.71,0,0,1,8.56,2.77q3.21,2.76,3.21,8.48v4.35H501.22v3q0,3.55,1.78,5.13a7.73,7.73,0,0,0,5.31,1.58,10,10,0,0,0,5-.94,5.88,5.88,0,0,0,2.36-3.07Zm-19-11.68V64.6H515.4v-.71q0-3.82-1.77-5.58a7.26,7.26,0,0,0-5.32-1.75A7.45,7.45,0,0,0,503,58.24Q501.22,59.92,501.22,63.46Z"/><path class="h" d="M541,81.85q-6.19,0-9.34-2.72t-3.15-8V63.46q0-5.39,3.15-8.15T541,52.54c3.65,0,6.47.83,8.44,2.49a9.87,9.87,0,0,1,3.28,7.25l-4.63.29a5.76,5.76,0,0,0-1.94-4.35,8.1,8.1,0,0,0-5.2-1.42c-2.58,0-4.51.54-5.77,1.63a6.29,6.29,0,0,0-1.89,5v7.66A6,6,0,0,0,535.19,76q1.9,1.61,5.84,1.61a9.05,9.05,0,0,0,5.15-1.21,4.46,4.46,0,0,0,1.89-3.61l4.63.28a8.61,8.61,0,0,1-3.26,6.57C547.49,81.11,544.68,81.85,541,81.85Z"/><path class="h" d="M577.09,81.8c-3.12,0-5.54-.77-7.28-2.31s-2.6-3.91-2.6-7.09V57.27h-8V53h8V43.56h4.73V53h12.29v4.25H571.94V72A5.44,5.44,0,0,0,573.31,76a5.66,5.66,0,0,0,4.07,1.32,19.63,19.63,0,0,0,3.35-.26,24.07,24.07,0,0,0,3-.68l.95,4.3a32.09,32.09,0,0,1-3.43.78A25.59,25.59,0,0,1,577.09,81.8Z"/><path class="h" d="M611.37,81.62a9.11,9.11,0,0,1-6.81-2.51,9.42,9.42,0,0,1-2.46-6.9V57.27H591.7V53h15.13V72.26A5.41,5.41,0,0,0,608,76a4.51,4.51,0,0,0,3.52,1.27,12.92,12.92,0,0,0,2.43-.26,11.47,11.47,0,0,0,2.3-.63l.94,4.11a15.26,15.26,0,0,1-2.65.78A16.2,16.2,0,0,1,611.37,81.62Zm-6.91-33.76a6.51,6.51,0,0,1-2.9-.56,2.17,2.17,0,0,1-1.11-2.13v-.33a2.26,2.26,0,0,1,1.11-2.2,7.45,7.45,0,0,1,5.81,0,2.26,2.26,0,0,1,1.11,2.2v.33a2.17,2.17,0,0,1-1.13,2.13A6.58,6.58,0,0,1,604.46,47.86Z"/><path class="h" d="M639.45,81.38h-5.91L623.47,53h5.15l7.94,24.53L644.5,53h5Z"/><path class="h" d="M675.47,81.62a9.11,9.11,0,0,1-6.81-2.51,9.42,9.42,0,0,1-2.46-6.9V57.27H655.8V53h15.13V72.26A5.41,5.41,0,0,0,672.09,76a4.51,4.51,0,0,0,3.52,1.27,12.92,12.92,0,0,0,2.43-.26,11.47,11.47,0,0,0,2.3-.63l.94,4.11a15.26,15.26,0,0,1-2.65.78A16.13,16.13,0,0,1,675.47,81.62Zm-6.91-33.76a6.51,6.51,0,0,1-2.9-.56,2.17,2.17,0,0,1-1.11-2.13v-.33a2.26,2.26,0,0,1,1.11-2.2,7.45,7.45,0,0,1,5.81,0,2.26,2.26,0,0,1,1.11,2.2v.33a2.15,2.15,0,0,1-1.13,2.13A6.58,6.58,0,0,1,668.56,47.86Z"/><path class="h" d="M705.29,81.8c-3.12,0-5.54-.77-7.28-2.31s-2.59-3.91-2.59-7.09V57.27h-8V53h8V43.56h4.72V53h12.29v4.25H700.14V72A5.44,5.44,0,0,0,701.51,76a5.66,5.66,0,0,0,4.07,1.32,19.55,19.55,0,0,0,3.35-.26,24.07,24.07,0,0,0,3-.68l1,4.3a32.09,32.09,0,0,1-3.43.78A25.59,25.59,0,0,1,705.29,81.8Z"/><path class="h" d="M724.25,91.12A17.88,17.88,0,0,1,722,91c-.73-.1-1.47-.22-2.22-.38l.8-4.21c.82.19,1.58.33,2.29.43a15.84,15.84,0,0,0,2,.14,6.36,6.36,0,0,0,3.85-1.23,7.63,7.63,0,0,0,2.57-3.93l.15-.42h-1.75L719.62,53h5.15l8,24.39L740.7,53h5l-10.4,29.3A13.9,13.9,0,0,1,730.89,89,10.59,10.59,0,0,1,724.25,91.12Z"/><path class="h" d="M803.67,81.62a9.11,9.11,0,0,1-6.81-2.51,9.42,9.42,0,0,1-2.46-6.9V57.27H784V53h15.13V72.26A5.41,5.41,0,0,0,800.29,76a4.51,4.51,0,0,0,3.52,1.27,12.92,12.92,0,0,0,2.43-.26,11.47,11.47,0,0,0,2.3-.63l.94,4.11a15.13,15.13,0,0,1-2.64.78A16.31,16.31,0,0,1,803.67,81.62Zm-6.9-33.76a6.53,6.53,0,0,1-2.91-.56,2.17,2.17,0,0,1-1.11-2.13v-.33a2.26,2.26,0,0,1,1.11-2.2,7.45,7.45,0,0,1,5.81,0,2.26,2.26,0,0,1,1.11,2.2v.33a2.15,2.15,0,0,1-1.13,2.13A6.57,6.57,0,0,1,796.77,47.86Z"/><path class="h" d="M817,81.38V53h4.73v4.72h1.41a8.28,8.28,0,0,1,3.27-3.8,9.29,9.29,0,0,1,5.05-1.4,8.82,8.82,0,0,1,6.72,2.6,9.91,9.91,0,0,1,2.45,7.09V81.38h-4.72V63.18a6.53,6.53,0,0,0-1.44-4.56A5.31,5.31,0,0,0,830.33,57,8.62,8.62,0,0,0,826,58.31,17,17,0,0,0,821.73,62V81.38Z"/><path class="h" d="M881.1,81.38V43.56h4.73V57.74h1.41a8.28,8.28,0,0,1,3.27-3.8,9.29,9.29,0,0,1,5-1.4,8.82,8.82,0,0,1,6.72,2.6,9.84,9.84,0,0,1,2.46,7V81.38H900V63.18a6.53,6.53,0,0,0-1.44-4.56A5.31,5.31,0,0,0,894.43,57a8.62,8.62,0,0,0-4.33,1.28A17,17,0,0,0,885.83,62V81.38Z"/><path class="h" d="M925,81.85q-5.73,0-8.77-2.76c-2-1.85-3.05-4.5-3.05-8V63.46c0-3.49,1-6.19,3.07-8.08s5-2.84,8.79-2.84,6.69,1,8.73,2.84,3,4.59,3,8.08v7.66c0,3.47-1,6.12-3,8S928.78,81.85,925,81.85Zm0-4.25q3.59,0,5.34-1.61a6.31,6.31,0,0,0,1.75-4.87V63.46a6.59,6.59,0,0,0-1.75-5Q928.56,56.8,925,56.8t-5.34,1.63c-1.17,1.09-1.75,2.76-1.75,5v7.66A6.27,6.27,0,0,0,919.63,76Q921.37,77.6,925,77.6Z"/><path class="h" d="M947.56,81.38V53h4.73v4.72h1.42a7.45,7.45,0,0,1,3-3.94,9.18,9.18,0,0,1,4.92-1.26,7.22,7.22,0,0,1,5.3,2.11,8,8,0,0,1,2.12,5.93v4.25h-4.49V62.28a5.64,5.64,0,0,0-1.2-4A4.84,4.84,0,0,0,959.71,57a7.77,7.77,0,0,0-4,1.09,11.08,11.08,0,0,0-3.38,3.41V81.38Z"/><path class="h" d="M996,81.62a9.11,9.11,0,0,1-6.81-2.51,9.42,9.42,0,0,1-2.46-6.9V57.27H976.3V53h15.13V72.26A5.46,5.46,0,0,0,992.59,76a4.52,4.52,0,0,0,3.52,1.27,13,13,0,0,0,2.44-.26,11.35,11.35,0,0,0,2.29-.63l.94,4.11a14.87,14.87,0,0,1-2.64.78A16.31,16.31,0,0,1,996,81.62Zm-6.9-33.76a6.53,6.53,0,0,1-2.91-.56,2.17,2.17,0,0,1-1.11-2.13v-.33a2.26,2.26,0,0,1,1.11-2.2,7.47,7.47,0,0,1,5.82,0,2.26,2.26,0,0,1,1.11,2.2v.33A2.16,2.16,0,0,1,992,47.3,6.54,6.54,0,0,1,989.07,47.86Z"/><path class="h" d="M1032,81.38h-21.74V77.13l15.93-19.86h-15.93V53H1032v4.25l-15.93,19.86H1032Z"/><path class="h" d="M1053.17,81.85c-3.81,0-6.74-.92-8.77-2.76s-3.05-4.5-3.05-8V63.46c0-3.49,1-6.19,3.07-8.08s5-2.84,8.8-2.84,6.69,1,8.72,2.84,3,4.59,3,8.08v7.66c0,3.47-1,6.12-3,8S1057,81.85,1053.17,81.85Zm0-4.25q3.58,0,5.34-1.61a6.27,6.27,0,0,0,1.75-4.87V63.46c0-2.27-.58-3.94-1.75-5s-3-1.63-5.34-1.63-4.18.54-5.34,1.63-1.75,2.76-1.75,5v7.66a6.27,6.27,0,0,0,1.75,4.87Q1049.57,77.6,1053.17,77.6Z"/><path class="h" d="M1073.4,81.38V53h4.73v4.72h1.42a8.26,8.26,0,0,1,3.26-3.8,9.32,9.32,0,0,1,5.06-1.4,8.81,8.81,0,0,1,6.71,2.6,9.91,9.91,0,0,1,2.46,7.09V81.38h-4.73V63.18a6.53,6.53,0,0,0-1.44-4.56,5.3,5.3,0,0,0-4.14-1.59,8.55,8.55,0,0,0-4.32,1.28,16.85,16.85,0,0,0-4.28,3.69V81.38Z"/><path class="h" d="M1122,81.8q-4.68,0-7.28-2.31c-1.73-1.54-2.6-3.91-2.6-7.09V57.27h-8V53h8V43.56h4.73V53h12.29v4.25H1116.8V72a5.4,5.4,0,0,0,1.37,4.07,5.64,5.64,0,0,0,4.06,1.32,19.75,19.75,0,0,0,3.36-.26,24.49,24.49,0,0,0,3-.68l.94,4.3a31.89,31.89,0,0,1-3.42.78A25.76,25.76,0,0,1,1122,81.8Z"/><path class="h" d="M1145.3,81.85a11.14,11.14,0,0,1-6.4-1.91c-1.88-1.28-2.82-3.33-2.82-6.17a7.34,7.34,0,0,1,2.44-5.86,8.37,8.37,0,0,1,5.69-2.13h9.84V61.71a4.52,4.52,0,0,0-1.52-3.59A6.79,6.79,0,0,0,1148,56.8a9.34,9.34,0,0,0-4.66.92c-1,.61-1.83,2-2.43,4.09l-4.16-1.14a9.48,9.48,0,0,1,3.61-6.07,12.53,12.53,0,0,1,7.54-2.06,13.67,13.67,0,0,1,7.8,2.11,7.32,7.32,0,0,1,3.12,6.51v12.7c0,1.7.48,2.77,1.42,3.19a7.75,7.75,0,0,0,4.26.17v4.3a12.19,12.19,0,0,1-5.51-.4q-2.58-.83-2.81-4.47h-1a10.7,10.7,0,0,1-4,3.69A11.66,11.66,0,0,1,1145.3,81.85Zm.62-4a11.61,11.61,0,0,0,4.53-.87,8.37,8.37,0,0,0,3.6-3.07V69.32h-8.51a5.81,5.81,0,0,0-3.38.93,3.68,3.68,0,0,0-1.35,3.26,4.27,4.27,0,0,0,1.16,3.18C1142.74,77.45,1144.06,77.83,1145.92,77.83Z"/><path class="h" d="M1188.27,81.62a9.11,9.11,0,0,1-6.81-2.51,9.46,9.46,0,0,1-2.45-6.9V47.82h-10.4V43.56h15.12v28.7a5.46,5.46,0,0,0,1.16,3.78,4.52,4.52,0,0,0,3.52,1.27,12.94,12.94,0,0,0,2.44-.26,11.35,11.35,0,0,0,2.29-.63l.95,4.11a15.26,15.26,0,0,1-2.65.78A16.23,16.23,0,0,1,1188.27,81.62Z"/><path class="h" d="M1245.09,81.85a17.73,17.73,0,0,1-3.38-.35,19.85,19.85,0,0,1-3.33-1v10.3h-4.73V53h4.73v4.72h1.42a9.13,9.13,0,0,1,3.43-3.8,9,9,0,0,1,4.84-1.4,8.4,8.4,0,0,1,6.74,2.91,11.75,11.75,0,0,1,2.48,7.87V71A10,10,0,0,1,1254,79Q1250.71,81.85,1245.09,81.85Zm0-4.16c2.64,0,4.56-.53,5.74-1.6s1.77-2.79,1.77-5.16V63.27q0-3.26-1.35-4.75a5.55,5.55,0,0,0-4.32-1.49,8.6,8.6,0,0,0-4.4,1.19,15.3,15.3,0,0,0-4.11,3.78V75.9a12.48,12.48,0,0,0,3,1.34A13.23,13.23,0,0,0,1245.05,77.69Z"/><path class="h" d="M1284.42,81.62a9.07,9.07,0,0,1-6.8-2.51,9.42,9.42,0,0,1-2.46-6.9V47.82h-10.4V43.56h15.12v28.7A5.46,5.46,0,0,0,1281,76a4.54,4.54,0,0,0,3.52,1.27,12.94,12.94,0,0,0,2.44-.26,11.35,11.35,0,0,0,2.29-.63l1,4.11a15.26,15.26,0,0,1-2.65.78A16.23,16.23,0,0,1,1284.42,81.62Z"/><path class="h" d="M1305.55,81.85a11.14,11.14,0,0,1-6.4-1.91c-1.88-1.28-2.81-3.33-2.81-6.17a7.37,7.37,0,0,1,2.43-5.86,8.37,8.37,0,0,1,5.7-2.13h9.83V61.71a4.55,4.55,0,0,0-1.51-3.59,6.83,6.83,0,0,0-4.59-1.32,9.34,9.34,0,0,0-4.66.92c-1,.61-1.83,2-2.43,4.09L1297,60.67a9.49,9.49,0,0,1,3.62-6.07,12.48,12.48,0,0,1,7.54-2.06,13.67,13.67,0,0,1,7.8,2.11,7.32,7.32,0,0,1,3.12,6.51v12.7c0,1.7.47,2.77,1.41,3.19a7.75,7.75,0,0,0,4.26.17v4.3a12.19,12.19,0,0,1-5.51-.4c-1.72-.55-2.65-2-2.81-4.47h-1a10.7,10.7,0,0,1-4,3.69A11.66,11.66,0,0,1,1305.55,81.85Zm.62-4a11.66,11.66,0,0,0,4.54-.87,8.4,8.4,0,0,0,3.59-3.07V69.32h-8.51a5.81,5.81,0,0,0-3.38.93,3.68,3.68,0,0,0-1.35,3.26,4.27,4.27,0,0,0,1.16,3.18C1303,77.45,1304.31,77.83,1306.17,77.83Z"/><path class="h" d="M1329.8,81.38V53h4.73v4.72H1336a8.26,8.26,0,0,1,3.26-3.8,9.32,9.32,0,0,1,5.06-1.4,8.8,8.8,0,0,1,6.71,2.6,9.91,9.91,0,0,1,2.46,7.09V81.38h-4.73V63.18a6.53,6.53,0,0,0-1.44-4.56,5.3,5.3,0,0,0-4.14-1.59,8.58,8.58,0,0,0-4.32,1.28,17,17,0,0,0-4.28,3.69V81.38Z"/><path class="h" d="M1385.59,75.14a9.58,9.58,0,0,1-3.88,5.13q-2.61,1.58-8,1.58c-3.75,0-6.67-.9-8.75-2.72s-3.12-4.49-3.12-8.06V63.46c0-3.65,1.1-6.39,3.29-8.2a13,13,0,0,1,8.58-2.72,12.71,12.71,0,0,1,8.56,2.77q3.21,2.76,3.21,8.48v4.35h-18.91v3q0,3.55,1.77,5.13a7.77,7.77,0,0,0,5.32,1.58,10,10,0,0,0,5-.94,5.88,5.88,0,0,0,2.36-3.07Zm-19-11.68V64.6h14.18v-.71q0-3.82-1.77-5.58a7.26,7.26,0,0,0-5.32-1.75,7.5,7.5,0,0,0-5.32,1.68Q1366.58,59.92,1366.58,63.46Z"/><g class="i"><path class="d" d="M1226.29,1511.44l-6.48-5.37.91,8h-3.93l.92-7.92-6.45,5.34-2-3.41,7.66-3.86-7.66-3.86,2-3.41,6.45,5.37-.92-7.89h3.93l-.91,7.92,6.48-5.4,2,3.41-7.66,3.86,7.66,3.86Z"/><path class="d" d="M1247.69,1520.57l-2.26-7.53h-9l-2.26,7.53h-3.33l8.44-26.19h3.43l8.45,26.19Zm-3.14-10.48-3.6-12-3.64,12Z"/><path class="d" d="M1262.91,1520.89a12.23,12.23,0,0,1-2.34-.24,14.46,14.46,0,0,1-2.31-.67v7.13H1255v-26.18h3.27v3.27h1a6.41,6.41,0,0,1,5.73-3.6,5.78,5.78,0,0,1,4.66,2,8.07,8.07,0,0,1,1.72,5.44v5.34a7,7,0,0,1-2.27,5.48A9,9,0,0,1,1262.91,1520.89Zm0-2.88a5.83,5.83,0,0,0,4-1.11,4.59,4.59,0,0,0,1.23-3.57V1508a4.84,4.84,0,0,0-.93-3.29,3.9,3.9,0,0,0-3-1,6,6,0,0,0-3,.82,10.75,10.75,0,0,0-2.85,2.62v9.62a8.39,8.39,0,0,0,2.11.93A9.12,9.12,0,0,0,1262.88,1518Z"/><path class="d" d="M1285.1,1520.89a12.07,12.07,0,0,1-2.34-.24,14.46,14.46,0,0,1-2.31-.67v7.13h-3.27v-26.18h3.27v3.27h1a6.41,6.41,0,0,1,5.73-3.6,5.78,5.78,0,0,1,4.66,2,8.07,8.07,0,0,1,1.72,5.44v5.34a6.94,6.94,0,0,1-2.28,5.48A9,9,0,0,1,1285.1,1520.89Zm0-2.88a5.84,5.84,0,0,0,4-1.11,4.59,4.59,0,0,0,1.23-3.57V1508a4.79,4.79,0,0,0-.94-3.29,3.88,3.88,0,0,0-3-1,6,6,0,0,0-3,.82,10.75,10.75,0,0,0-2.85,2.62v9.62a8.39,8.39,0,0,0,2.11.93A9.1,9.1,0,0,0,1285.06,1518Z"/><path class="d" d="M1301,1520.57v-19.64h3.27v3.27h1a5.12,5.12,0,0,1,2.09-2.73,6.34,6.34,0,0,1,3.4-.87,5,5,0,0,1,3.67,1.46,5.52,5.52,0,0,1,1.47,4.11v2.94h-3.11v-1.77a3.89,3.89,0,0,0-.83-2.74,3.34,3.34,0,0,0-2.54-.89,5.39,5.39,0,0,0-2.8.75,7.73,7.73,0,0,0-2.34,2.36v13.75Z"/><path class="d" d="M1329.74,1520.89a8.73,8.73,0,0,1-6.08-1.91,7.11,7.11,0,0,1-2.11-5.52v-5.3a7.22,7.22,0,0,1,2.13-5.59,8.66,8.66,0,0,1,6.09-2,8.55,8.55,0,0,1,6,2,7.28,7.28,0,0,1,2.11,5.59v5.3a7.11,7.11,0,0,1-2.11,5.52A8.72,8.72,0,0,1,1329.74,1520.89Zm0-2.94a5.3,5.3,0,0,0,3.69-1.11,4.38,4.38,0,0,0,1.21-3.38v-5.3a4.53,4.53,0,0,0-1.21-3.48,6.61,6.61,0,0,0-7.39,0,4.53,4.53,0,0,0-1.21,3.48v5.3a4.38,4.38,0,0,0,1.21,3.38A5.31,5.31,0,0,0,1329.74,1518Z"/><path class="d" d="M1356.8,1520.57l-5.07-7.5-4.85,7.5h-3.63l6.87-9.85-6.64-9.79h3.67l4.87,7.2,4.94-7.2h3.64l-6.94,9.62,6.81,10Z"/><path class="d" d="M1378.89,1520.73a6.31,6.31,0,0,1-4.71-1.73,6.51,6.51,0,0,1-1.7-4.78v-10.34h-7.2v-3h10.47v13.32a3.8,3.8,0,0,0,.8,2.62,3.14,3.14,0,0,0,2.44.88,9.27,9.27,0,0,0,1.68-.18,8,8,0,0,0,1.59-.44l.66,2.85a9.83,9.83,0,0,1-1.84.54A11.14,11.14,0,0,1,1378.89,1520.73Zm-4.78-23.37a4.44,4.44,0,0,1-2-.39,1.5,1.5,0,0,1-.77-1.47v-.23a1.57,1.57,0,0,1,.77-1.52,4.17,4.17,0,0,1,2-.41,4.24,4.24,0,0,1,2,.41,1.56,1.56,0,0,1,.76,1.52v.23a1.49,1.49,0,0,1-.78,1.47A4.48,4.48,0,0,1,1374.11,1497.36Z"/><path class="d" d="M1389.82,1506.49v14.08h-3v-19.64h3v2.62h.66a5.52,5.52,0,0,1,1.63-2.16,3.41,3.41,0,0,1,2.13-.79,3.12,3.12,0,0,1,2.14.77,4,4,0,0,1,1.2,2.18h.72a5.26,5.26,0,0,1,1.68-2.16,3.74,3.74,0,0,1,2.28-.79,3,3,0,0,1,2.58,1.33,6,6,0,0,1,1,3.58v15.06h-3V1506a5,5,0,0,0-.39-2.23,1.23,1.23,0,0,0-1.15-.75,2.54,2.54,0,0,0-1.55.91,12.87,12.87,0,0,0-1.88,2.52v14.08h-3V1506a4.81,4.81,0,0,0-.41-2.23,1.28,1.28,0,0,0-1.16-.75,2.37,2.37,0,0,0-1.53.88A15,15,0,0,0,1389.82,1506.49Z"/><path class="d" d="M1415.71,1520.89a7.74,7.74,0,0,1-4.44-1.32,4.82,4.82,0,0,1-1.94-4.27,5.11,5.11,0,0,1,1.68-4.06,5.81,5.81,0,0,1,4-1.47h6.8V1507a3.17,3.17,0,0,0-1-2.49,4.73,4.73,0,0,0-3.18-.91,6.35,6.35,0,0,0-3.22.64,4.65,4.65,0,0,0-1.69,2.83l-2.88-.79a6.56,6.56,0,0,1,2.51-4.2,8.62,8.62,0,0,1,5.22-1.43,9.46,9.46,0,0,1,5.4,1.46,5.06,5.06,0,0,1,2.16,4.51v8.79c0,1.18.32,1.92,1,2.21a5.34,5.34,0,0,0,2.94.12v3a8.35,8.35,0,0,1-3.81-.27c-1.19-.38-1.84-1.42-2-3.1h-.65a7.43,7.43,0,0,1-2.75,2.56A8.08,8.08,0,0,1,1415.71,1520.89Zm.42-2.78a7.93,7.93,0,0,0,3.15-.61,5.72,5.72,0,0,0,2.48-2.12v-3.16h-5.89a4.08,4.08,0,0,0-2.34.64,2.55,2.55,0,0,0-.93,2.26,3,3,0,0,0,.8,2.2A3.82,3.82,0,0,0,1416.13,1518.11Z"/><path class="d" d="M1443.92,1520.86a7.31,7.31,0,0,1-5-1.6,6.25,6.25,0,0,1-1.8-4.91v-10.47h-5.57v-3h5.57v-6.55h3.27v6.55h8.51v3h-8.51v10.17a3.77,3.77,0,0,0,1,2.82,3.9,3.9,0,0,0,2.82.91,14.18,14.18,0,0,0,2.32-.18,14.42,14.42,0,0,0,2.06-.47l.65,3a19.66,19.66,0,0,1-2.37.54A17.49,17.49,0,0,1,1443.92,1520.86Z"/><path class="d" d="M1467.65,1520.73a6.34,6.34,0,0,1-4.72-1.73,6.56,6.56,0,0,1-1.7-4.78v-10.34H1454v-3h10.47v13.32a3.75,3.75,0,0,0,.81,2.62,3.1,3.1,0,0,0,2.43.88,9.37,9.37,0,0,0,1.69-.18,8.44,8.44,0,0,0,1.59-.44l.65,2.85a9.5,9.5,0,0,1-1.83.54A11.14,11.14,0,0,1,1467.65,1520.73Zm-4.78-23.37a4.51,4.51,0,0,1-2-.39,1.49,1.49,0,0,1-.76-1.47v-.23a1.56,1.56,0,0,1,.76-1.52,4.24,4.24,0,0,1,2-.41,4.17,4.17,0,0,1,2,.41,1.57,1.57,0,0,1,.77,1.52v.23a1.48,1.48,0,0,1-.79,1.47A4.46,4.46,0,0,1,1462.87,1497.36Z"/><path class="d" d="M1485.06,1520.89A8.7,8.7,0,0,1,1479,1519a7.08,7.08,0,0,1-2.12-5.52v-5.3a7.22,7.22,0,0,1,2.13-5.59,8.66,8.66,0,0,1,6.09-2,8.55,8.55,0,0,1,6,2,7.28,7.28,0,0,1,2.11,5.59v5.3a7.11,7.11,0,0,1-2.11,5.52A8.72,8.72,0,0,1,1485.06,1520.89Zm0-2.94a5.3,5.3,0,0,0,3.69-1.11,4.38,4.38,0,0,0,1.21-3.38v-5.3a4.53,4.53,0,0,0-1.21-3.48,6.61,6.61,0,0,0-7.39,0,4.53,4.53,0,0,0-1.21,3.48v5.3a4.38,4.38,0,0,0,1.21,3.38A5.33,5.33,0,0,0,1485.06,1518Z"/><path class="d" d="M1499.06,1520.57v-19.64h3.28v3.27h1a5.68,5.68,0,0,1,2.26-2.63,6.46,6.46,0,0,1,3.5-1,6.07,6.07,0,0,1,4.64,1.8,6.84,6.84,0,0,1,1.71,4.91v13.26h-3.28V1508a4.55,4.55,0,0,0-1-3.16,3.69,3.69,0,0,0-2.87-1.1,5.92,5.92,0,0,0-3,.89,11.59,11.59,0,0,0-3,2.55v13.42Z"/></g><line class="j" x1="49.63" y1="1434.71" x2="144.13" y2="1434.71"/><line class="k" x1="49.63" y1="1507.32" x2="144.13" y2="1507.32"/><path class="h" d="M197.34,1449.28q-6.24,0-9.5-3.48t-3.26-10.09v-11.44c0-4.47,1.09-7.89,3.28-10.23s5.37-3.53,9.53-3.53,7.28,1.18,9.45,3.53,3.26,5.76,3.26,10.23v11.44q0,6.61-3.26,10.09T197.34,1449.28Zm0-4.26q4.35,0,6.19-2.12t1.85-7.19v-11.44c0-3.43-.62-5.88-1.85-7.33s-3.29-2.17-6.19-2.17-5,.72-6.19,2.17-1.85,3.9-1.85,7.33v11.44q0,5.05,1.85,7.19T197.34,1445Z"/><path class="h" d="M232.32,1448.8h-5.91l-10.07-28.36h5.16l7.94,24.54,7.94-24.54h5Z"/><path class="h" d="M273.35,1442.56a9.44,9.44,0,0,1-3.87,5.13q-2.61,1.59-8,1.59-5.62,0-8.75-2.72t-3.12-8.06v-7.61q0-5.49,3.29-8.2a13,13,0,0,1,8.58-2.72,12.66,12.66,0,0,1,8.55,2.76q3.22,2.77,3.22,8.49v4.35H254.35v3q0,3.54,1.77,5.13a7.81,7.81,0,0,0,5.32,1.58,9.91,9.91,0,0,0,5-1,5.85,5.85,0,0,0,2.37-3.07Zm-19-11.67V1432h14.18v-.71q0-3.82-1.77-5.57a7.27,7.27,0,0,0-5.32-1.75,7.52,7.52,0,0,0-5.32,1.67Q254.35,1427.34,254.35,1430.89Z"/><path class="h" d="M284,1448.8v-28.36h4.72v4.73h1.42a7.44,7.44,0,0,1,3-4,9.21,9.21,0,0,1,4.91-1.25,7.24,7.24,0,0,1,5.3,2.1,8,8,0,0,1,2.13,5.93v4.26h-4.49v-2.55a5.63,5.63,0,0,0-1.21-4,4.78,4.78,0,0,0-3.66-1.28,7.71,7.71,0,0,0-4.05,1.09,11,11,0,0,0-3.38,3.4v19.85Z"/><path class="h" d="M321.52,1449.28a11.08,11.08,0,0,1-6.4-1.92c-1.88-1.27-2.81-3.33-2.81-6.17a7.38,7.38,0,0,1,2.43-5.86,8.37,8.37,0,0,1,5.7-2.13h9.83v-4.06a4.55,4.55,0,0,0-1.51-3.59,6.78,6.78,0,0,0-4.59-1.33,9.34,9.34,0,0,0-4.66.92q-1.53.93-2.43,4.09l-4.16-1.13a9.51,9.51,0,0,1,3.62-6.08,12.48,12.48,0,0,1,7.54-2,13.59,13.59,0,0,1,7.8,2.11,7.3,7.3,0,0,1,3.12,6.51v12.69c0,1.71.47,2.77,1.41,3.2a7.77,7.77,0,0,0,4.26.16V1449a12,12,0,0,1-5.51-.41c-1.72-.55-2.65-2-2.81-4.46h-1a10.6,10.6,0,0,1-4,3.68A11.66,11.66,0,0,1,321.52,1449.28Zm.62-4a11.49,11.49,0,0,0,4.54-.88,8.4,8.4,0,0,0,3.59-3.07v-4.56h-8.51a5.81,5.81,0,0,0-3.38.93,3.66,3.66,0,0,0-1.35,3.25,4.28,4.28,0,0,0,1.16,3.19C319,1444.88,320.28,1445.26,322.14,1445.26Z"/><path class="h" d="M364.49,1449a9.08,9.08,0,0,1-6.8-2.5,9.45,9.45,0,0,1-2.46-6.91v-24.39h-10.4V1411H360v28.69a5.46,5.46,0,0,0,1.15,3.78,4.55,4.55,0,0,0,3.53,1.28,13.81,13.81,0,0,0,2.43-.26,11.29,11.29,0,0,0,2.29-.64l.95,4.11a13.69,13.69,0,0,1-2.65.78A15.5,15.5,0,0,1,364.49,1449Z"/><path class="h" d="M396.54,1449a9.08,9.08,0,0,1-6.8-2.5,9.45,9.45,0,0,1-2.46-6.91v-24.39h-10.4V1411H392v28.69a5.46,5.46,0,0,0,1.15,3.78,4.55,4.55,0,0,0,3.53,1.28,13.81,13.81,0,0,0,2.43-.26,11.29,11.29,0,0,0,2.29-.64l.95,4.11a13.69,13.69,0,0,1-2.65.78A15.5,15.5,0,0,1,396.54,1449Z"/><path class="l" d="M186.94,1518.45v-4.25h10.4v-27.89H196a9.3,9.3,0,0,1-4.14,4,9.69,9.69,0,0,1-5.83.61l-.48-4.63a12,12,0,0,0,6.67-1,13.8,13.8,0,0,0,5.29-4.65h4.59v33.56h9.45v4.25Z"/><path class="l" d="M224.66,1505.6v12.85h-4.72v-37.81h4.72v20.94h2.42l9.07-11.49h5.77l-11.11,13.21,11,15.15h-5.39l-9.31-12.85Z"/><path class="l" d="M249.62,1518.45v-37.81h4.73v15.12h14.18v-15.12h4.73v37.81h-4.73V1500H254.35v18.43Z"/><path class="l" d="M304.36,1518.45H282.62v-4.25l15.93-19.85H282.62v-4.26h21.74v4.26l-15.93,19.85h15.93Z"/><path class="l" d="M312.31,1504.27v-4.72h26.47v4.72Z"/><path class="l" d="M344.83,1518.45v-8a10.32,10.32,0,0,1,2.08-6.81c1.38-1.67,3.67-3,6.85-3.92l6.43-1.89a8.51,8.51,0,0,0,3.83-1.94,4.93,4.93,0,0,0,1.14-3.55v-1.94c0-2.17-.53-3.71-1.59-4.6s-3.05-1.35-6-1.35c-2.68,0-4.54.56-5.6,1.68s-1.71,3.25-2,6.4l-4.73-.47q.38-6.48,3.15-9.17t9.09-2.7c4.13,0,7.22.81,9.27,2.41s3.07,4,3.07,7.33V1493a7.82,7.82,0,0,1-2,5.67q-2,2.13-6.71,3.5l-6.48,1.89A9.36,9.36,0,0,0,351,1506c-.93.83-1.39,2.28-1.39,4.32v3.88h20.8v4.25Z"/><path class="l" d="M384.92,1505.6v12.85h-4.73v-37.81h4.73v20.94h2.41l9.07-11.49h5.77l-11.11,13.21,11,15.15h-5.39l-9.31-12.85Z"/><path class="l" d="M409.88,1518.45v-37.81h4.72v15.12h14.18v-15.12h4.73v37.81h-4.73V1500H414.6v18.43Z"/><path class="l" d="M464.62,1518.45H442.87v-4.25l15.93-19.85H442.87v-4.26h21.75v4.26l-15.94,19.85h15.94Z"/></svg>